<svg width="43" height="43" viewBox="0 0 43 43" fill="none" xmlns="http://www.w3.org/2000/svg">
    <circle cx="21.5" cy="21.5" r="21.5" fill="url(#paint0_linear_155_614)"/>
    <defs>
        <linearGradient id="paint0_linear_155_614" x1="4.5" y1="36.5" x2="37" y2="5" gradientUnits="userSpaceOnUse">
            <stop stop-color="#4A6BD5"/>
            <stop offset="1" stop-color="#6C8AEC"/>
        </linearGradient>
    </defs>
    <path d="M23.1154 18H24.7308C24.8795 18 25 17.8881 25 17.75V16.25C25 16.1119 24.8795 16 24.7308 16H23.1154C21.4805 16.0017 20.1556 17.2319 20.1539 18.75V20.5H18.2692C18.1205 20.5 18 20.6119 18 20.75V22.25C18 22.3881 18.1205 22.5 18.2692 22.5H20.1539V27.75C20.1539 27.8881 20.2744 28 20.4231 28H22.0385C22.1872 28 22.3077 27.8881 22.3077 27.75V22.5H24.1923C24.3082 22.4999 24.411 22.4311 24.4476 22.329L24.986 20.829C25.033 20.698 24.9567 20.5565 24.8157 20.5128C24.7883 20.5044 24.7596 20.5 24.7308 20.5H22.3077V18.75C22.3077 18.3358 22.6693 18 23.1154 18Z" fill="white"/>
</svg>
