<svg width="43" height="43" viewBox="0 0 43 43" fill="none" xmlns="http://www.w3.org/2000/svg">
    <circle cx="21.5" cy="21.5" r="21.5" fill="url(#paint0_linear_155_619)"/>
    <defs>
        <linearGradient id="paint0_linear_155_619" x1="4.5" y1="36.5" x2="37" y2="5" gradientUnits="userSpaceOnUse">
            <stop stop-color="#EB4132"/>
            <stop offset="1" stop-color="#F1695D"/>
        </linearGradient>
    </defs>
    <path d="M18.8125 22C18.8125 21.4055 18.9763 20.8485 19.2609 20.3717V18.3488H17.238C16.4352 19.3915 16 20.6623 16 22C16 23.3378 16.4352 24.6085 17.238 25.6512H19.2609V23.6284C18.9763 23.1515 18.8125 22.5946 18.8125 22Z" fill="white"/>
    <path d="M22 25.1875L20.5938 26.5938L22 28C23.3378 28 24.6085 27.5648 25.6512 26.762V24.7413H23.6305C23.1495 25.0269 22.5902 25.1875 22 25.1875Z" fill="white"/>
    <path d="M19.2609 23.6284L17.238 25.6512C17.397 25.8577 17.5699 26.0553 17.7572 26.2427C18.8905 27.3759 20.3973 28 22 28V25.1875C20.8369 25.1875 19.8176 24.5613 19.2609 23.6284Z" fill="white"/>
    <path d="M28 22C28 21.635 27.967 21.2693 27.9018 20.9131L27.849 20.6248H22V23.4373H24.8465C24.5701 23.9872 24.1451 24.4357 23.6305 24.7413L25.6512 26.762C25.8576 26.603 26.0553 26.43 26.2426 26.2427C27.3759 25.1094 28 23.6027 28 22Z" fill="white"/>
    <path d="M24.2539 19.7461L24.5025 19.9947L26.4912 18.0059L26.2427 17.7574C25.1094 16.6241 23.6027 16 22 16L20.5938 17.4062L22 18.8125C22.8514 18.8125 23.6519 19.144 24.2539 19.7461Z" fill="white"/>
    <path d="M22 18.8125V16C20.3973 16 18.8905 16.6241 17.7572 17.7573C17.5699 17.9446 17.397 18.1423 17.238 18.3488L19.2609 20.3717C19.8176 19.4388 20.8369 18.8125 22 18.8125Z" fill="white"/>
</svg>
