<svg width="102" height="43" viewBox="0 0 102 43" fill="none" xmlns="http://www.w3.org/2000/svg">
<rect x="59.5" y="0.5" width="42" height="42" rx="5.5" stroke="#E7EAEF"/>
<path d="M83.7138 16.2816C82.6976 14.3061 80.572 13 78.1876 13C74.7759 13 72.0003 15.6277 72.0003 18.8575C72.0003 19.7353 72.1982 20.5766 72.5888 21.361L72.0105 24.1145C71.9369 24.465 72.2617 24.7748 72.6299 24.7055L75.5576 24.1544C75.9518 24.3324 76.3596 24.4678 76.7786 24.5611C75.8393 20.3256 79.2113 16.3498 83.7138 16.2816Z" fill="#13CF97"/>
<path d="M89.4113 25.6453C89.5123 25.4424 89.6002 25.2357 89.6753 25.0256H89.656C90.9725 21.3465 88.2039 17.4798 84.1167 17.2915C84.1166 17.2913 84.1166 17.2911 84.1165 17.2909C80.5997 17.1366 77.6779 19.8175 77.6779 23.1418C77.6779 26.3689 80.4327 28.9945 83.821 28.9992C84.7401 28.9981 85.621 28.8097 86.4425 28.4387C89.6489 29.0422 89.3989 28.9993 89.4725 28.9993C89.8058 28.9993 90.0547 28.7086 89.9896 28.3988L89.4113 25.6453Z" fill="#13CF97"/>
<rect x="0.5" y="0.5" width="42" height="42" rx="5.5" stroke="#E7EAEF"/>
<path fill-rule="evenodd" clip-rule="evenodd" d="M19.2967 13C17.476 13 16 14.3382 16 15.989V26.011C16 27.6618 17.476 29 19.2967 29H24.7033C26.524 29 28 27.6618 28 26.011V15.989C28 14.3382 26.524 13 24.7033 13H19.2967ZM20.1181 15.88C19.2077 15.88 18.4697 16.5491 18.4697 17.3745V23.3455C18.4697 24.1709 19.2077 24.84 20.1181 24.84H23.8802C24.7906 24.84 25.5286 24.1709 25.5286 23.3455V17.3745C25.5286 16.5491 24.7906 15.88 23.8802 15.88H20.1181Z" fill="#13CF97"/>
<circle cx="22" cy="27" r="1" fill="white"/>
</svg>
