<svg width="34" height="34" viewBox="0 0 34 34" fill="none" xmlns="http://www.w3.org/2000/svg">
<g clip-path="url(#clip0_7_296)">
<path d="M32.4373 6.92014H1.56267C0.701051 6.92014 0 7.62119 0 8.48294V13.169C0 13.6127 0.228437 14.0297 0.596262 14.2572C1.55623 14.8509 2.12932 15.8763 2.12932 17.0001C2.12932 18.1239 1.55623 19.1492 0.596195 19.743C0.228437 19.9704 0 20.3874 0 20.8311V25.5171C0 26.3788 0.701051 27.0798 1.56267 27.0798H32.4373C33.299 27.0798 34 26.3788 34 25.5171V8.48294C34 7.62119 33.299 6.92014 32.4373 6.92014ZM33.0039 25.5171C33.0039 25.8296 32.7498 26.0837 32.4373 26.0837H7.91629V26.0495C7.91629 25.7744 7.69336 25.5514 7.41824 25.5514C7.14312 25.5514 6.9202 25.7744 6.9202 26.0495V26.0837H1.56267C1.25023 26.0837 0.996094 25.8295 0.996094 25.5171V20.8311C0.996094 20.7298 1.04371 20.6374 1.12021 20.5901C2.37575 19.8135 3.12534 18.4714 3.12534 17C3.12534 15.5286 2.37575 14.1865 1.12021 13.41C1.04371 13.3625 0.996094 13.2702 0.996094 13.1689V8.48281C0.996094 8.17037 1.25023 7.91623 1.56267 7.91623H6.9202V7.95049C6.9202 8.22555 7.14312 8.44854 7.41824 8.44854C7.69336 8.44854 7.91629 8.22555 7.91629 7.95049V7.91623H32.4373C32.7498 7.91623 33.0039 8.17043 33.0039 8.48281V25.5171Z" fill="white"/>
<path d="M7.41797 15.9697C7.14285 15.9697 6.91992 16.1927 6.91992 16.4678V17.5324C6.91992 17.8074 7.14285 18.0304 7.41797 18.0304C7.69309 18.0304 7.91602 17.8074 7.91602 17.5324V16.4678C7.91602 16.1926 7.69309 15.9697 7.41797 15.9697Z" fill="white"/>
<path d="M7.41797 9.58189C7.14285 9.58189 6.91992 9.80489 6.91992 10.0799V11.1446C6.91992 11.4196 7.14285 11.6426 7.41797 11.6426C7.69309 11.6426 7.91602 11.4196 7.91602 11.1446V10.0799C7.91602 9.80482 7.69309 9.58189 7.41797 9.58189Z" fill="white"/>
<path d="M7.41797 12.7757C7.14285 12.7757 6.91992 12.9987 6.91992 13.2738V14.3384C6.91992 14.6134 7.14285 14.8364 7.41797 14.8364C7.69309 14.8364 7.91602 14.6134 7.91602 14.3384V13.2738C7.91602 12.9987 7.69309 12.7757 7.41797 12.7757Z" fill="white"/>
<path d="M7.41797 19.1636C7.14285 19.1636 6.91992 19.3866 6.91992 19.6616V20.7263C6.91992 21.0013 7.14285 21.2243 7.41797 21.2243C7.69309 21.2243 7.91602 21.0013 7.91602 20.7263V19.6616C7.91602 19.3865 7.69309 19.1636 7.41797 19.1636Z" fill="white"/>
<path d="M7.41797 22.3575C7.14285 22.3575 6.91992 22.5804 6.91992 22.8555V23.9201C6.91992 24.1952 7.14285 24.4182 7.41797 24.4182C7.69309 24.4182 7.91602 24.1952 7.91602 23.9201V22.8555C7.91602 22.5804 7.69309 22.3575 7.41797 22.3575Z" fill="white"/>
<path d="M26.6668 15.2825C26.5025 14.7769 26.0536 14.4268 25.5232 14.3909L22.5847 14.1917L21.4873 11.4587C21.2891 10.9653 20.8176 10.6465 20.2859 10.6465C19.7541 10.6465 19.2827 10.9653 19.0846 11.4587L17.9871 14.1917L15.0486 14.3909C14.5182 14.4269 14.0693 14.7769 13.905 15.2825C13.7407 15.7882 13.8981 16.3351 14.3062 16.676L16.5663 18.5644L15.8477 21.4206C15.718 21.9362 15.9121 22.4713 16.3423 22.7837C16.7724 23.0962 17.3412 23.1155 17.7915 22.8328L20.2859 21.2668L22.7803 22.8327C22.9925 22.966 23.231 23.0321 23.469 23.0321C23.7359 23.0321 24.0021 22.9489 24.2295 22.7837C24.6597 22.4712 24.8537 21.9361 24.724 21.4205L24.0055 18.5643L26.2656 16.676C26.6737 16.3351 26.8311 15.7882 26.6668 15.2825ZM25.6269 15.9116L23.1269 18.0005C22.9802 18.1231 22.9166 18.3188 22.9632 18.5042L23.758 21.6636C23.8025 21.8402 23.6931 21.9422 23.644 21.9779C23.5949 22.0135 23.464 22.0859 23.3099 21.9892L20.5507 20.257C20.3888 20.1554 20.183 20.1554 20.0211 20.257L17.2618 21.9892C17.1075 22.0861 16.9767 22.0135 16.9277 21.9779C16.8786 21.9422 16.7692 21.8402 16.8137 21.6636L17.6086 18.5042C17.6552 18.3188 17.5916 18.1231 17.4449 18.0005L14.9448 15.9116C14.8051 15.7948 14.8336 15.648 14.8523 15.5903C14.871 15.5326 14.9342 15.397 15.116 15.3847L18.3664 15.1643C18.5571 15.1514 18.7236 15.0304 18.7948 14.853L20.0089 11.8298C20.0767 11.6609 20.2252 11.6426 20.2858 11.6426C20.3465 11.6426 20.495 11.6609 20.5628 11.8299L21.7768 14.853C21.8481 15.0304 22.0145 15.1514 22.2053 15.1643L25.4556 15.3847C25.6373 15.3971 25.7006 15.5326 25.7194 15.5903C25.7382 15.648 25.7667 15.7947 25.6269 15.9116Z" fill="white"/>
</g>
<defs>
<clipPath id="clip0_7_296">
<rect width="34" height="34" fill="white"/>
</clipPath>
</defs>
</svg>
