<svg width="119" height="119" viewBox="0 0 119 119" fill="none" xmlns="http://www.w3.org/2000/svg">
<g clip-path="url(#clip0_48_481)">
<path d="M118.225 59.5315C118.228 43.8484 112.133 29.0759 101.062 17.9699C93.1024 10.0295 83.1401 4.54181 72.2257 2.12117C61.599 -0.223732 50.5508 0.384745 40.2838 3.93749C39.3901 4.23909 38.8265 5.07397 38.8154 5.96382C38.8124 6.20433 38.8572 6.46947 38.9264 6.71087C39.3212 7.8463 40.5643 8.46308 41.6998 8.06827C61.557 1.21897 83.1195 6.20127 97.9687 21.0585C108.232 31.3366 113.86 44.9969 113.848 59.5252C113.836 74.0536 108.158 87.6937 97.8797 97.9573L97.5629 98.2901L97.5723 91.7236C97.5631 90.5208 96.589 89.5465 95.3865 89.5316C94.1837 89.5407 93.2098 90.4908 93.1949 91.6933L93.1946 91.7173L93.1919 103.552C93.201 104.755 94.1751 105.729 95.3777 105.744L107.212 105.746C108.415 105.737 109.389 104.787 109.404 103.585L109.404 103.561C109.395 102.358 108.421 101.384 107.218 101.369L100.652 101.359L100.969 101.026C112.074 89.9794 118.199 75.2142 118.225 59.5315Z" fill="#4C565F"/>
<path d="M23.5715 13.2313L11.7371 13.2287C10.5343 13.2378 9.56034 14.1879 9.54541 15.3904L9.54511 15.4144C9.55423 16.6172 10.5283 17.5915 11.7308 17.6064L18.2974 17.6158L17.9806 17.9486C6.67978 29.2098 0.939952 43.9797 0.780041 58.7948C0.590405 74.0666 6.29334 89.3875 17.9111 101.03C25.8462 108.994 35.8087 114.457 46.7472 116.878C57.3739 119.223 68.4222 118.615 78.6891 115.062C79.8246 114.667 80.4413 113.424 80.0465 112.289C79.6517 111.153 78.4086 110.536 77.2731 110.931C57.4159 117.78 35.8534 112.798 21.0043 97.9409C-0.1883 76.7269 -0.144548 42.2103 21.0692 21.0418L21.386 20.709L21.3766 27.2755C21.3857 28.4783 22.3598 29.4526 23.5623 29.4675C24.7651 29.4584 25.7391 28.5083 25.754 27.3058L25.7543 27.2818L25.757 15.4473C25.7484 14.1964 24.7743 13.2222 23.5715 13.2313Z" fill="#4C565F"/>
<circle cx="87.3385" cy="107.597" r="4.0096" transform="rotate(90.7114 87.3385 107.597)" fill="#13CF97"/>
<circle cx="31.4008" cy="10.6648" r="4.0096" transform="rotate(90.7114 31.4008 10.6648)" fill="#13CF97"/>
</g>
<defs>
<clipPath id="clip0_48_481">
<rect width="117.268" height="117.268" fill="white" transform="translate(119 1.45955) scale(1.0024) rotate(90.7114)"/>
</clipPath>
</defs>
</svg>
