<svg width="144" height="144" viewBox="0 0 144 144" fill="none" xmlns="http://www.w3.org/2000/svg">
<g clip-path="url(#clip0_50_10)">
<path d="M128.551 56.1242C124.306 41.0232 114.437 28.4502 100.769 20.7555C90.9543 15.266 79.8758 12.6804 68.7113 13.3059C57.8442 13.9264 47.3713 17.5047 38.448 23.7063C37.6692 24.2387 37.3527 25.1952 37.583 26.055C37.6453 26.2874 37.7603 26.5306 37.8923 26.7443C38.5799 27.7306 39.9439 27.9877 40.9302 27.3C58.1946 15.3269 80.3054 14.2838 98.6269 24.5671C111.293 31.6835 120.411 43.3121 124.335 57.3039C128.258 71.2957 126.486 85.9669 119.369 98.633L119.155 99.0393L117.385 92.7141C117.05 91.5585 115.849 90.8843 114.687 91.1956C113.531 91.5302 112.851 92.7087 113.162 93.8706L113.168 93.8938L116.371 105.289C116.706 106.445 117.907 107.119 119.069 106.808L130.465 103.605C131.62 103.27 132.301 102.092 131.99 100.93L131.983 100.907C131.649 99.7511 130.447 99.0769 129.285 99.3882L122.96 101.158L123.175 100.751C130.876 87.1068 132.774 71.2314 128.551 56.1242Z" fill="#4C565F"/>
<path d="M24.8735 37.1814L13.478 40.3842C12.3224 40.7188 11.6419 41.8973 11.9533 43.0592L11.9595 43.0824C12.294 44.2381 13.4958 44.9123 14.6577 44.601L20.9829 42.8314L20.7679 43.2377C12.9371 57.1413 11.411 72.9171 15.2697 87.2252C19.2235 101.981 28.8642 115.188 43.2036 123.251C53.0009 128.77 64.0732 131.332 75.261 130.7C86.128 130.08 96.601 126.502 105.524 120.3C106.511 119.612 106.768 118.248 106.08 117.262C105.392 116.276 104.028 116.018 103.042 116.706C85.7777 128.679 63.6668 129.722 45.3453 119.439C19.1943 104.753 9.88753 71.5072 24.5796 45.3794L24.7945 44.9732L26.564 51.2983C26.8986 52.4539 28.1004 53.1282 29.2622 52.8168C30.4179 52.4823 31.0983 51.3037 30.787 50.1418L30.7808 50.1186L27.5779 38.7232C27.2309 37.521 26.0291 36.8468 24.8735 37.1814Z" fill="#4C565F"/>
<circle cx="111.832" cy="110.77" r="4.01047" transform="rotate(75 111.832 110.77)" fill="#FF553E"/>
<circle cx="31.7183" cy="32.5894" r="4.01047" transform="rotate(75 31.7183 32.5894)" fill="#FF553E"/>
</g>
<defs>
<clipPath id="clip0_50_10">
<rect width="117.268" height="117.268" fill="white" transform="translate(113.569) scale(1.00262) rotate(75)"/>
</clipPath>
</defs>
</svg>
