<svg width="72" height="12" viewBox="0 0 72 12" fill="none" xmlns="http://www.w3.org/2000/svg">
<path d="M11.3387 4.18392C11.2639 3.94995 11.0597 3.7843 10.8191 3.76217L7.53734 3.45934L6.24038 0.373087C6.14462 0.146343 5.92674 0 5.68423 0C5.44172 0 5.22375 0.146343 5.1286 0.373087L3.83164 3.45934L0.549391 3.76217C0.308786 3.78474 0.105044 3.95039 0.0297572 4.18392C-0.0450957 4.41789 0.0240327 4.67452 0.206004 4.83673L2.68673 7.04766L1.95529 10.3221C1.90177 10.5628 1.99371 10.8118 2.19026 10.9562C2.2959 11.0342 2.42002 11.0732 2.54457 11.0732C2.6516 11.0732 2.75872 11.0442 2.85439 10.9861L5.68423 9.26626L8.51355 10.9861C8.72111 11.1121 8.9821 11.1006 9.1782 10.9562C9.37475 10.8118 9.46669 10.5628 9.41317 10.3221L8.68173 7.04766L11.1625 4.83673C11.3443 4.67452 11.4136 4.41842 11.3387 4.18392Z" fill="white"/>
<path d="M41.6551 4.18392C41.5803 3.94995 41.3761 3.7843 41.1355 3.76217L37.8537 3.45934L36.5568 0.373087C36.461 0.146343 36.2431 0 36.0006 0C35.7581 0 35.5402 0.146343 35.445 0.373087L34.148 3.45934L30.8658 3.76217C30.6252 3.78474 30.4215 3.95039 30.3462 4.18392C30.2713 4.41789 30.3404 4.67452 30.5224 4.83673L33.0031 7.04766L32.2717 10.3221C32.2182 10.5628 32.3101 10.8118 32.5067 10.9562C32.6123 11.0342 32.7364 11.0732 32.861 11.0732C32.968 11.0732 33.0751 11.0442 33.1708 10.9861L36.0006 9.26626L38.83 10.9861C39.0375 11.1121 39.2985 11.1006 39.4946 10.9562C39.6912 10.8118 39.7831 10.5628 39.7296 10.3221L38.9981 7.04766L41.4789 4.83673C41.6607 4.67452 41.73 4.41842 41.6551 4.18392Z" fill="white"/>
<path d="M71.9701 4.18392C71.8952 3.94995 71.691 3.7843 71.4504 3.76217L68.1687 3.45934L66.8717 0.373087C66.776 0.146343 66.5581 0 66.3156 0C66.0731 0 65.8551 0.146343 65.7599 0.373087L64.463 3.45934L61.1807 3.76217C60.9401 3.78474 60.7364 3.95039 60.6611 4.18392C60.5863 4.41789 60.6554 4.67452 60.8374 4.83673L63.3181 7.04766L62.5866 10.3221C62.5331 10.5628 62.6251 10.8118 62.8216 10.9562C62.9272 11.0342 63.0514 11.0732 63.1759 11.0732C63.283 11.0732 63.3901 11.0442 63.4857 10.9861L66.3156 9.26626L69.1449 10.9861C69.3525 11.1121 69.6134 11.1006 69.8096 10.9562C70.0061 10.8118 70.098 10.5628 70.0445 10.3221L69.3131 7.04766L71.7938 4.83673C71.9757 4.67452 72.0449 4.41842 71.9701 4.18392Z" fill="#00D5FA"/>
<path d="M26.4964 4.18392C26.4216 3.94995 26.2174 3.7843 25.9768 3.76217L22.6951 3.45934L21.3981 0.373087C21.3023 0.146343 21.0845 0 20.8419 0C20.5994 0 20.3815 0.146343 20.2863 0.373087L18.9894 3.45934L15.7071 3.76217C15.4665 3.78474 15.2628 3.95039 15.1875 4.18392C15.1126 4.41789 15.1817 4.67452 15.3637 4.83673L17.8444 7.04766L17.113 10.3221C17.0595 10.5628 17.1514 10.8118 17.348 10.9562C17.4536 11.0342 17.5777 11.0732 17.7023 11.0732C17.8093 11.0732 17.9164 11.0442 18.0121 10.9861L20.8419 9.26626L23.6713 10.9861C23.8788 11.1121 24.1398 11.1006 24.3359 10.9562C24.5325 10.8118 24.6244 10.5628 24.5709 10.3221L23.8394 7.04766L26.3202 4.83673C26.5021 4.67452 26.5713 4.41842 26.4964 4.18392Z" fill="white"/>
<path d="M56.8128 4.18392C56.738 3.94995 56.5338 3.7843 56.2932 3.76217L53.0115 3.45934L51.7145 0.373087C51.6187 0.146343 51.4009 0 51.1584 0C50.9158 0 50.6979 0.146343 50.6027 0.373087L49.3058 3.45934L46.0235 3.76217C45.7829 3.78474 45.5792 3.95039 45.5039 4.18392C45.429 4.41789 45.4982 4.67452 45.6801 4.83673L48.1609 7.04766L47.4294 10.3221C47.3759 10.5628 47.4678 10.8118 47.6644 10.9562C47.77 11.0342 47.8941 11.0732 48.0187 11.0732C48.1257 11.0732 48.2328 11.0442 48.3285 10.9861L51.1584 9.26626L53.9877 10.9861C54.1952 11.1121 54.4562 11.1006 54.6523 10.9562C54.8489 10.8118 54.9408 10.5628 54.8873 10.3221L54.1559 7.04766L56.6366 4.83673C56.8185 4.67452 56.8877 4.41842 56.8128 4.18392Z" fill="white"/>
</svg>
