<svg width="48" height="48" viewBox="0 0 48 48" fill="none" xmlns="http://www.w3.org/2000/svg">
<g clip-path="url(#clip0_0_4)">
<path d="M17.6001 30.8952L20.0382 17.181H23.8477L21.4858 30.8952H17.6001Z" fill="#3C58BF"/>
<path d="M17.6001 30.8952L20.7239 17.181H23.8477L21.4858 30.8952H17.6001Z" fill="#293688"/>
<path d="M35.2763 17.3333C34.5144 17.0286 33.2953 16.7238 31.7715 16.7238C27.962 16.7238 25.2191 18.6286 25.2191 21.3714C25.2191 23.4286 27.1239 24.4952 28.6477 25.181C30.1715 25.8667 30.6287 26.3238 30.6287 26.9333C30.6287 27.8476 29.4096 28.3048 28.343 28.3048C26.8191 28.3048 25.981 28.0762 24.6858 27.5429L24.1525 27.3143L23.6191 30.4381C24.5334 30.819 26.2096 31.2 27.962 31.2C32.0001 31.2 34.6668 29.2952 34.6668 26.4C34.6668 24.8 33.6763 23.581 31.3906 22.5905C30.0191 21.9048 29.181 21.5238 29.181 20.8381C29.181 20.2286 29.8668 19.619 31.3906 19.619C32.6858 19.619 33.6001 19.8476 34.2858 20.1524L34.6668 20.3048L35.2763 17.3333Z" fill="#3C58BF"/>
<path d="M35.2763 17.3333C34.5144 17.0286 33.2953 16.7238 31.7715 16.7238C27.962 16.7238 25.9049 18.6286 25.9049 21.3714C25.9049 23.4286 27.1239 24.4952 28.6477 25.181C30.1715 25.8667 30.6287 26.3238 30.6287 26.9333C30.6287 27.8476 29.4096 28.3048 28.343 28.3048C26.8191 28.3048 25.981 28.0762 24.6858 27.5429L24.1525 27.3143L23.6191 30.4381C24.5334 30.819 26.2096 31.2 27.962 31.2C32.0001 31.2 34.6668 29.2952 34.6668 26.4C34.6668 24.8 33.6763 23.581 31.3906 22.5905C30.0191 21.9048 29.181 21.5238 29.181 20.8381C29.181 20.2286 29.8668 19.619 31.3906 19.619C32.6858 19.619 33.6001 19.8476 34.2858 20.1524L34.6668 20.3048L35.2763 17.3333Z" fill="#293688"/>
<path d="M41.8285 17.181C40.9143 17.181 40.2285 17.2571 39.8476 18.1714L34.1333 30.8952H38.2476L39.0095 28.6095H43.8857L44.3428 30.8952H48L44.8 17.181H41.8285ZM40.0762 26.3238C40.3047 25.6381 41.6 22.2857 41.6 22.2857C41.6 22.2857 41.9047 21.4476 42.1333 20.9143L42.3619 22.2095C42.3619 22.2095 43.1238 25.6381 43.2762 26.4H40.0762V26.3238Z" fill="#3C58BF"/>
<path d="M42.7428 17.181C41.8285 17.181 41.1428 17.2571 40.7619 18.1714L34.1333 30.8952H38.2476L39.0095 28.6095H43.8857L44.3428 30.8952H48L44.8 17.181H42.7428ZM40.0762 26.3238C40.3809 25.5619 41.6 22.2857 41.6 22.2857C41.6 22.2857 41.9047 21.4476 42.1333 20.9143L42.3619 22.2095C42.3619 22.2095 43.1238 25.6381 43.2762 26.4H40.0762V26.3238Z" fill="#293688"/>
<path d="M10.5903 26.781L10.2093 24.8C9.5236 22.5143 7.31407 20 4.87598 18.781L8.30455 30.9714H12.4188L18.5903 17.2571H14.476L10.5903 26.781Z" fill="#3C58BF"/>
<path d="M10.5903 26.781L10.2093 24.8C9.5236 22.5143 7.31407 20 4.87598 18.781L8.30455 30.9714H12.4188L18.5903 17.2571H15.2379L10.5903 26.781Z" fill="#293688"/>
<path d="M0 17.181L0.685714 17.3333C5.5619 18.4762 8.91428 21.3714 10.2095 24.8L8.83809 18.3238C8.60952 17.4095 7.92381 17.181 7.08571 17.181H0Z" fill="#FFBC00"/>
<path d="M0 17.181C4.87619 18.3238 8.91428 21.2952 10.2095 24.7238L8.91428 19.3143C8.68571 18.4 7.92381 17.8667 7.08571 17.8667L0 17.181Z" fill="#F7981D"/>
<path d="M0 17.181C4.87619 18.3238 8.91428 21.2952 10.2095 24.7238L9.29524 21.7524C9.06667 20.8381 8.7619 19.9238 7.69524 19.5429L0 17.181Z" fill="#ED7C00"/>
<path d="M14.3998 26.3238L11.8093 23.7333L10.5902 26.6286L10.2855 24.7238C9.59977 22.4381 7.39024 19.9238 4.95215 18.7048L8.38072 30.8952H12.495L14.3998 26.3238Z" fill="#051244"/>
<path d="M21.4853 30.8952L18.2091 27.5429L17.5996 30.8952H21.4853Z" fill="#051244"/>
<path d="M30.2472 26.1714C30.552 26.4762 30.7044 26.7048 30.6282 27.0095C30.6282 27.9238 29.4091 28.381 28.3425 28.381C26.8187 28.381 25.9806 28.1524 24.6853 27.619L24.152 27.3905L23.6187 30.5143C24.5329 30.8952 26.2091 31.2762 27.9615 31.2762C30.3996 31.2762 32.3806 30.5905 33.5234 29.3714L30.2472 26.1714Z" fill="#051244"/>
<path d="M34.6665 30.8952H38.2475L39.0094 28.6095H43.8856L44.3427 30.8952H47.9998L46.7046 25.3333L42.1332 20.9143L42.3617 22.1333C42.3617 22.1333 43.1236 25.5619 43.276 26.3238H40.076C40.3808 25.5619 41.5998 22.2857 41.5998 22.2857C41.5998 22.2857 41.9046 21.4476 42.1332 20.9143" fill="#051244"/>
</g>
<defs>
<clipPath id="clip0_0_4">
<rect width="48" height="48" fill="white"/>
</clipPath>
</defs>
</svg>
