<svg width="24" height="24" viewBox="0 0 24 24" fill="none" xmlns="http://www.w3.org/2000/svg">
<g clip-path="url(#clip0_39_846)">
<path d="M2 6.61523H22V8.15351H2V6.61523Z" fill="#F5F5F5"/>
<path d="M3.0444 3.53848H20.9556C21.3349 3.98333 21.6267 4.50493 21.8042 5.07696H2.19584C2.37334 4.50493 2.66518 3.98333 3.0444 3.53848Z" fill="#F5F5F5"/>
<path d="M2 9.6922H22V11.2305H2V9.6922Z" fill="#F5F5F5"/>
<path d="M2 12.7691H22V14.3074H2V12.7691Z" fill="#F5F5F5"/>
<path d="M2 15.8461H22V17.3844H2V15.8461Z" fill="#F5F5F5"/>
<path d="M2.19584 18.9231H21.8042C21.6267 19.4951 21.3349 20.0167 20.9556 20.4615H3.04444C2.66518 20.0167 2.37334 19.4951 2.19584 18.9231Z" fill="#F5F5F5"/>
<path d="M6.37506 2H17.6251C18.959 2 20.1532 2.59715 20.9557 3.53848H3.04448C3.8469 2.59715 5.04116 2 6.37506 2Z" fill="#FF4B55"/>
<path d="M2 8.15392H22V9.6922H2V8.15392Z" fill="#FF4B55"/>
<path d="M2 6.375C2 5.923 2.06855 5.48707 2.19582 5.07695H21.8042C21.9314 5.48707 22 5.923 22 6.375V6.61539H2V6.375Z" fill="#FF4B55"/>
<path d="M2 11.2309H22V12.7691H2V11.2309Z" fill="#FF4B55"/>
<path d="M2 17.625V17.3846H22V17.625C22 18.077 21.9314 18.5129 21.8042 18.9231H2.19582C2.06855 18.5129 2 18.077 2 17.625Z" fill="#FF4B55"/>
<path d="M3.04444 20.4615H20.9557C20.1532 21.4028 18.959 22 17.6251 22H6.37506C5.04116 22 3.8469 21.4028 3.04444 20.4615Z" fill="#FF4B55"/>
<path d="M2 14.3078H22V15.8461H2V14.3078Z" fill="#FF4B55"/>
<path d="M11.2308 2H17.625C20.0412 2 22 3.95875 22 6.375V12.7692H11.2308V2Z" fill="#41479B"/>
<path d="M20.8381 3.68216C20.8483 3.71454 20.8115 3.74133 20.7838 3.72157L20.5704 3.56907L20.357 3.72157C20.3294 3.74133 20.2925 3.71454 20.3028 3.68216L20.3819 3.43208L20.1709 3.27626C20.1436 3.25606 20.1576 3.21274 20.1916 3.21247L20.4539 3.21044L20.4986 3.07622C20.6111 3.17423 20.7183 3.27798 20.8201 3.38684L20.7589 3.43208L20.8381 3.68216Z" fill="#F5F5F5"/>
<path d="M20.5369 5.03731L20.454 5.28614L20.1917 5.28817C20.1577 5.28844 20.1436 5.33176 20.1709 5.35196L20.382 5.50778L20.3029 5.75785C20.2926 5.79024 20.3295 5.817 20.3571 5.79727L20.5705 5.64473L20.7839 5.79727C20.8115 5.81703 20.8484 5.79024 20.8382 5.75785L20.7591 5.50778L20.9701 5.35196C20.9974 5.3318 20.9833 5.28844 20.9494 5.28817L20.6871 5.28614L20.6041 5.03731C20.5933 5.00508 20.5477 5.00508 20.5369 5.03731Z" fill="#F5F5F5"/>
<path d="M20.5369 7.33937L20.454 7.5882L20.1917 7.59023C20.1577 7.5905 20.1436 7.63382 20.1709 7.65402L20.382 7.80984L20.3029 8.05992C20.2926 8.0923 20.3295 8.11906 20.3571 8.09933L20.5705 7.94683L20.7839 8.09933C20.8115 8.11906 20.8484 8.0923 20.8382 8.05992L20.7591 7.80984L20.9701 7.65402C20.9974 7.63386 20.9833 7.5905 20.9494 7.59023L20.6871 7.5882L20.6041 7.33937C20.5933 7.30714 20.5477 7.30714 20.5369 7.33937Z" fill="#F5F5F5"/>
<path d="M20.5369 9.45445L20.454 9.70328L20.1917 9.70531C20.1577 9.70558 20.1436 9.74891 20.1709 9.7691L20.382 9.92492L20.3029 10.175C20.2926 10.2074 20.3295 10.2341 20.3571 10.2144L20.5705 10.0619L20.7839 10.2144C20.8115 10.2341 20.8484 10.2074 20.8382 10.175L20.7591 9.92492L20.9701 9.7691C20.9974 9.74894 20.9833 9.70558 20.9494 9.70531L20.6871 9.70328L20.6041 9.45445C20.5933 9.42223 20.5477 9.42223 20.5369 9.45445Z" fill="#F5F5F5"/>
<path d="M20.5369 11.3792L20.454 11.628L20.1917 11.63C20.1577 11.6303 20.1436 11.6736 20.1709 11.6938L20.382 11.8496L20.3029 12.0997C20.2926 12.1321 20.3295 12.1588 20.3571 12.1391L20.5705 11.9866L20.7839 12.1391C20.8115 12.1588 20.8484 12.1321 20.8382 12.0997L20.7591 11.8496L20.9701 11.6938C20.9974 11.6736 20.9833 11.6303 20.9494 11.63L20.6871 11.628L20.6041 11.3792C20.5933 11.3469 20.5477 11.3469 20.5369 11.3792Z" fill="#F5F5F5"/>
<path d="M19.5265 3.94456L19.4436 4.19339L19.1813 4.19542C19.1474 4.1957 19.1333 4.23902 19.1606 4.25917L19.3716 4.41499L19.2925 4.66507C19.2822 4.69746 19.3191 4.72425 19.3467 4.70449L19.5601 4.55195L19.7735 4.70449C19.8011 4.72425 19.8379 4.69746 19.8277 4.66507L19.7486 4.41499L19.9596 4.25917C19.9869 4.23902 19.9728 4.19566 19.9389 4.19542L19.6766 4.19339L19.5937 3.94456C19.5829 3.91234 19.5373 3.91234 19.5265 3.94456Z" fill="#F5F5F5"/>
<path d="M19.5267 6.24664L19.4437 6.49547L19.1815 6.4975C19.1475 6.49778 19.1334 6.5411 19.1607 6.56129L19.3717 6.71711L19.2926 6.96719C19.2824 6.99957 19.3192 7.02637 19.3469 7.0066L19.5603 6.85407L19.7737 7.0066C19.8013 7.02637 19.8382 6.99957 19.828 6.96719L19.7489 6.71711L19.9598 6.56129C19.9871 6.54114 19.9731 6.49778 19.9391 6.4975L19.6769 6.49547L19.5939 6.24664C19.583 6.21442 19.5375 6.21442 19.5267 6.24664Z" fill="#F5F5F5"/>
<path d="M19.5267 8.43379L19.4437 8.68262L19.1815 8.68465C19.1475 8.68493 19.1334 8.72825 19.1607 8.74844L19.3717 8.90426L19.2926 9.15434C19.2824 9.18672 19.3192 9.21348 19.3469 9.19375L19.5603 9.04122L19.7737 9.19375C19.8013 9.21352 19.8382 9.18672 19.828 9.15434L19.7489 8.90426L19.9598 8.74844C19.9871 8.72829 19.9731 8.68493 19.9391 8.68465L19.6769 8.68262L19.5939 8.43379C19.583 8.40161 19.5375 8.40161 19.5267 8.43379Z" fill="#F5F5F5"/>
<path d="M19.5267 10.3979L19.4437 10.6468L19.1815 10.6488C19.1475 10.6491 19.1334 10.6924 19.1607 10.7126L19.3717 10.8684L19.2926 11.1185C19.2824 11.1509 19.3192 11.1777 19.3469 11.1579L19.5603 11.0054L19.7737 11.1579C19.8013 11.1777 19.8382 11.1509 19.828 11.1185L19.7489 10.8684L19.9598 10.7126C19.9871 10.6924 19.9731 10.6491 19.9391 10.6488L19.6769 10.6468L19.5939 10.3979C19.583 10.3657 19.5375 10.3657 19.5267 10.3979Z" fill="#F5F5F5"/>
<path d="M18.5163 2.96164L18.4334 3.21047L18.1711 3.2125C18.1372 3.21277 18.1231 3.25609 18.1504 3.27625L18.3614 3.43207L18.2823 3.68215C18.272 3.71453 18.3089 3.74129 18.3365 3.72156L18.5499 3.56902L18.7633 3.72156C18.7909 3.74133 18.8278 3.71453 18.8176 3.68215L18.7385 3.43207L18.9495 3.27625C18.9768 3.25609 18.9627 3.21273 18.9288 3.2125L18.6665 3.21047L18.5835 2.96164C18.5727 2.92945 18.5271 2.92945 18.5163 2.96164Z" fill="#F5F5F5"/>
<path d="M18.5163 5.03731L18.4334 5.28614L18.1711 5.28817C18.1372 5.28844 18.1231 5.33176 18.1504 5.35196L18.3614 5.50778L18.2823 5.75785C18.272 5.79024 18.3089 5.817 18.3365 5.79727L18.5499 5.64473L18.7633 5.79727C18.7909 5.81703 18.8278 5.79024 18.8176 5.75785L18.7385 5.50778L18.9495 5.35196C18.9768 5.3318 18.9627 5.28844 18.9288 5.28817L18.6665 5.28614L18.5835 5.03731C18.5727 5.00508 18.5271 5.00508 18.5163 5.03731Z" fill="#F5F5F5"/>
<path d="M18.5163 7.33937L18.4334 7.5882L18.1711 7.59023C18.1372 7.5905 18.1231 7.63382 18.1504 7.65402L18.3614 7.80984L18.2823 8.05992C18.272 8.0923 18.3089 8.11906 18.3365 8.09933L18.5499 7.94683L18.7633 8.09933C18.7909 8.11906 18.8278 8.0923 18.8176 8.05992L18.7385 7.80984L18.9495 7.65402C18.9768 7.63386 18.9627 7.5905 18.9288 7.59023L18.6665 7.5882L18.5835 7.33937C18.5727 7.30714 18.5271 7.30714 18.5163 7.33937Z" fill="#F5F5F5"/>
<path d="M18.5163 9.45445L18.4334 9.70328L18.1711 9.70531C18.1372 9.70558 18.1231 9.74891 18.1504 9.7691L18.3614 9.92492L18.2823 10.175C18.272 10.2074 18.3089 10.2341 18.3365 10.2144L18.5499 10.0619L18.7633 10.2144C18.7909 10.2341 18.8278 10.2074 18.8176 10.175L18.7385 9.92492L18.9495 9.7691C18.9768 9.74894 18.9627 9.70558 18.9288 9.70531L18.6665 9.70328L18.5835 9.45445C18.5727 9.42223 18.5271 9.42223 18.5163 9.45445Z" fill="#F5F5F5"/>
<path d="M18.5163 11.3792L18.4334 11.628L18.1711 11.63C18.1372 11.6303 18.1231 11.6736 18.1504 11.6938L18.3614 11.8496L18.2823 12.0997C18.272 12.1321 18.3089 12.1588 18.3365 12.1391L18.5499 11.9866L18.7633 12.1391C18.7909 12.1588 18.8278 12.1321 18.8176 12.0997L18.7385 11.8496L18.9495 11.6938C18.9768 11.6736 18.9627 11.6303 18.9288 11.63L18.6665 11.628L18.5835 11.3792C18.5727 11.3469 18.5271 11.3469 18.5163 11.3792Z" fill="#F5F5F5"/>
<path d="M17.506 3.94456L17.4231 4.19339L17.1608 4.19542C17.1269 4.1957 17.1128 4.23902 17.1401 4.25917L17.3511 4.41499L17.272 4.66507C17.2617 4.69746 17.2986 4.72425 17.3262 4.70449L17.5396 4.55195L17.753 4.70449C17.7807 4.72425 17.8175 4.69746 17.8073 4.66507L17.7282 4.41499L17.9392 4.25917C17.9665 4.23902 17.9524 4.19566 17.9185 4.19542L17.6562 4.19339L17.5732 3.94456C17.5623 3.91234 17.5168 3.91234 17.506 3.94456Z" fill="#F5F5F5"/>
<path d="M17.506 6.24664L17.4231 6.49547L17.1608 6.4975C17.1269 6.49778 17.1128 6.5411 17.1401 6.56129L17.3511 6.71711L17.272 6.96719C17.2617 6.99957 17.2986 7.02637 17.3262 7.0066L17.5396 6.85407L17.753 7.0066C17.7807 7.02637 17.8175 6.99957 17.8073 6.96719L17.7282 6.71711L17.9392 6.56129C17.9665 6.54114 17.9524 6.49778 17.9185 6.4975L17.6562 6.49547L17.5732 6.24664C17.5623 6.21442 17.5168 6.21442 17.506 6.24664Z" fill="#F5F5F5"/>
<path d="M17.506 8.43379L17.4231 8.68262L17.1608 8.68465C17.1269 8.68493 17.1128 8.72825 17.1401 8.74844L17.3511 8.90426L17.272 9.15434C17.2617 9.18672 17.2986 9.21348 17.3262 9.19375L17.5396 9.04122L17.753 9.19375C17.7807 9.21352 17.8175 9.18672 17.8073 9.15434L17.7282 8.90426L17.9392 8.74844C17.9665 8.72829 17.9524 8.68493 17.9185 8.68465L17.6562 8.68262L17.5732 8.43379C17.5623 8.40161 17.5168 8.40161 17.506 8.43379Z" fill="#F5F5F5"/>
<path d="M17.506 10.3979L17.4231 10.6468L17.1608 10.6488C17.1269 10.6491 17.1128 10.6924 17.1401 10.7126L17.3511 10.8684L17.272 11.1185C17.2617 11.1509 17.2986 11.1777 17.3262 11.1579L17.5396 11.0054L17.753 11.1579C17.7807 11.1777 17.8175 11.1509 17.8073 11.1185L17.7282 10.8684L17.9392 10.7126C17.9665 10.6924 17.9524 10.6491 17.9185 10.6488L17.6562 10.6468L17.5732 10.3979C17.5623 10.3657 17.5168 10.3657 17.506 10.3979Z" fill="#F5F5F5"/>
<path d="M16.4958 2.96164L16.4129 3.21047L16.1506 3.2125C16.1166 3.21277 16.1025 3.25609 16.1299 3.27625L16.3409 3.43207L16.2618 3.68215C16.2515 3.71453 16.2884 3.74129 16.316 3.72156L16.5294 3.56902L16.7428 3.72156C16.7704 3.74133 16.8073 3.71453 16.7971 3.68215L16.718 3.43207L16.929 3.27625C16.9563 3.25609 16.9422 3.21273 16.9082 3.2125L16.6459 3.21047L16.563 2.96164C16.5521 2.92945 16.5066 2.92945 16.4958 2.96164Z" fill="#F5F5F5"/>
<path d="M16.4957 5.0373L16.4128 5.28613L16.1505 5.28816C16.1166 5.28843 16.1025 5.33175 16.1298 5.35195L16.3408 5.50777L16.2616 5.75781C16.2514 5.79019 16.2882 5.81695 16.3159 5.79722L16.5293 5.64468L16.7427 5.79722C16.7703 5.81698 16.8072 5.79019 16.797 5.75781L16.7179 5.50773L16.9288 5.35191C16.9561 5.33175 16.9421 5.28839 16.9081 5.28812L16.6458 5.28609L16.5629 5.03726C16.552 5.00507 16.5065 5.00507 16.4957 5.0373Z" fill="#F5F5F5"/>
<path d="M16.4958 7.33937L16.4129 7.5882L16.1506 7.59023C16.1166 7.5905 16.1025 7.63382 16.1299 7.65402L16.3409 7.80984L16.2618 8.05992C16.2515 8.0923 16.2884 8.11906 16.316 8.09933L16.5294 7.94683L16.7428 8.09933C16.7704 8.11906 16.8073 8.0923 16.7971 8.05992L16.718 7.80984L16.929 7.65402C16.9563 7.63386 16.9422 7.5905 16.9082 7.59023L16.6459 7.5882L16.563 7.33937C16.5521 7.30714 16.5066 7.30714 16.4958 7.33937Z" fill="#F5F5F5"/>
<path d="M16.4958 9.45445L16.4129 9.70328L16.1506 9.70531C16.1166 9.70558 16.1025 9.74891 16.1299 9.7691L16.3409 9.92492L16.2618 10.175C16.2515 10.2074 16.2884 10.2341 16.316 10.2144L16.5294 10.0619L16.7428 10.2144C16.7704 10.2341 16.8073 10.2074 16.7971 10.175L16.718 9.92492L16.929 9.7691C16.9563 9.74894 16.9422 9.70558 16.9082 9.70531L16.6459 9.70328L16.563 9.45445C16.5521 9.42223 16.5066 9.42223 16.4958 9.45445Z" fill="#F5F5F5"/>
<path d="M16.4958 11.3792L16.4129 11.628L16.1506 11.63C16.1166 11.6303 16.1025 11.6736 16.1299 11.6938L16.3409 11.8496L16.2618 12.0997C16.2515 12.1321 16.2884 12.1588 16.316 12.1391L16.5294 11.9866L16.7428 12.1391C16.7704 12.1588 16.8073 12.1321 16.7971 12.0997L16.718 11.8496L16.929 11.6938C16.9563 11.6736 16.9422 11.6303 16.9082 11.63L16.6459 11.628L16.563 11.3792C16.5521 11.3469 16.5066 11.3469 16.4958 11.3792Z" fill="#F5F5F5"/>
<path d="M15.4857 3.94456L15.4027 4.19339L15.1404 4.19542C15.1065 4.1957 15.0924 4.23902 15.1197 4.25917L15.3307 4.41499L15.2516 4.66507C15.2414 4.69746 15.2783 4.72425 15.3059 4.70449L15.5193 4.55195L15.7327 4.70449C15.7603 4.72425 15.7972 4.69746 15.7869 4.66507L15.7078 4.41499L15.9188 4.25917C15.9461 4.23902 15.9321 4.19566 15.8981 4.19542L15.6358 4.19339L15.5529 3.94456C15.5419 3.91234 15.4964 3.91234 15.4857 3.94456Z" fill="#F5F5F5"/>
<path d="M15.4857 6.24664L15.4027 6.49547L15.1404 6.4975C15.1065 6.49778 15.0924 6.5411 15.1197 6.56129L15.3307 6.71711L15.2516 6.96719C15.2414 6.99957 15.2783 7.02637 15.3059 7.0066L15.5193 6.85407L15.7327 7.0066C15.7603 7.02637 15.7972 6.99957 15.7869 6.96719L15.7078 6.71711L15.9188 6.56129C15.9461 6.54114 15.9321 6.49778 15.8981 6.4975L15.6358 6.49547L15.5529 6.24664C15.5419 6.21442 15.4964 6.21442 15.4857 6.24664Z" fill="#F5F5F5"/>
<path d="M15.4857 8.43379L15.4027 8.68262L15.1404 8.68465C15.1065 8.68493 15.0924 8.72825 15.1197 8.74844L15.3307 8.90426L15.2516 9.15434C15.2414 9.18672 15.2783 9.21348 15.3059 9.19375L15.5193 9.04122L15.7327 9.19375C15.7603 9.21352 15.7972 9.18672 15.7869 9.15434L15.7078 8.90426L15.9188 8.74844C15.9461 8.72829 15.9321 8.68493 15.8981 8.68465L15.6358 8.68262L15.5529 8.43379C15.5419 8.40161 15.4964 8.40161 15.4857 8.43379Z" fill="#F5F5F5"/>
<path d="M15.4857 10.3979L15.4027 10.6468L15.1404 10.6488C15.1065 10.6491 15.0924 10.6924 15.1197 10.7126L15.3307 10.8684L15.2516 11.1185C15.2414 11.1509 15.2783 11.1777 15.3059 11.1579L15.5193 11.0054L15.7327 11.1579C15.7603 11.1777 15.7972 11.1509 15.7869 11.1185L15.7078 10.8684L15.9188 10.7126C15.9461 10.6924 15.9321 10.6491 15.8981 10.6488L15.6358 10.6468L15.5529 10.3979C15.5419 10.3657 15.4964 10.3657 15.4857 10.3979Z" fill="#F5F5F5"/>
<path d="M14.4754 2.96164L14.3924 3.21047L14.1301 3.2125C14.0962 3.21277 14.0821 3.25609 14.1094 3.27625L14.3204 3.43207L14.2413 3.68215C14.2311 3.71453 14.268 3.74129 14.2956 3.72156L14.509 3.56902L14.7224 3.72156C14.75 3.74133 14.7869 3.71453 14.7767 3.68215L14.6975 3.43207L14.9086 3.27625C14.9359 3.25609 14.9218 3.21273 14.8878 3.2125L14.6256 3.21047L14.5426 2.96164C14.5317 2.92945 14.4861 2.92945 14.4754 2.96164Z" fill="#F5F5F5"/>
<path d="M14.4754 5.03731L14.3924 5.28614L14.1301 5.28817C14.0962 5.28844 14.0821 5.33176 14.1094 5.35196L14.3204 5.50778L14.2413 5.75785C14.2311 5.79024 14.268 5.817 14.2956 5.79727L14.509 5.64473L14.7224 5.79727C14.75 5.81703 14.7869 5.79024 14.7767 5.75785L14.6975 5.50778L14.9086 5.35196C14.9359 5.3318 14.9218 5.28844 14.8878 5.28817L14.6256 5.28614L14.5426 5.03731C14.5317 5.00508 14.4861 5.00508 14.4754 5.03731Z" fill="#F5F5F5"/>
<path d="M14.4754 7.33937L14.3924 7.5882L14.1301 7.59023C14.0962 7.5905 14.0821 7.63382 14.1094 7.65402L14.3204 7.80984L14.2413 8.05992C14.2311 8.0923 14.268 8.11906 14.2956 8.09933L14.509 7.94683L14.7224 8.09933C14.75 8.11906 14.7869 8.0923 14.7767 8.05992L14.6975 7.80984L14.9086 7.65402C14.9359 7.63386 14.9218 7.5905 14.8878 7.59023L14.6256 7.5882L14.5426 7.33937C14.5317 7.30714 14.4861 7.30714 14.4754 7.33937Z" fill="#F5F5F5"/>
<path d="M14.4754 9.45445L14.3924 9.70328L14.1301 9.70531C14.0962 9.70558 14.0821 9.74891 14.1094 9.7691L14.3204 9.92492L14.2413 10.175C14.2311 10.2074 14.268 10.2341 14.2956 10.2144L14.509 10.0619L14.7224 10.2144C14.75 10.2341 14.7869 10.2074 14.7767 10.175L14.6975 9.92492L14.9086 9.7691C14.9359 9.74894 14.9218 9.70558 14.8878 9.70531L14.6256 9.70328L14.5426 9.45445C14.5317 9.42223 14.4861 9.42223 14.4754 9.45445Z" fill="#F5F5F5"/>
<path d="M14.4754 11.3792L14.3924 11.628L14.1301 11.63C14.0962 11.6303 14.0821 11.6736 14.1094 11.6938L14.3204 11.8496L14.2413 12.0997C14.2311 12.1321 14.268 12.1588 14.2956 12.1391L14.509 11.9866L14.7224 12.1391C14.75 12.1588 14.7869 12.1321 14.7767 12.0997L14.6975 11.8496L14.9086 11.6938C14.9359 11.6736 14.9218 11.6303 14.8878 11.63L14.6256 11.628L14.5426 11.3792C14.5317 11.3469 14.4861 11.3469 14.4754 11.3792Z" fill="#F5F5F5"/>
<path d="M13.465 3.94456L13.3821 4.19339L13.1198 4.19542C13.0858 4.1957 13.0717 4.23902 13.099 4.25917L13.3101 4.41499L13.231 4.66507C13.2207 4.69746 13.2576 4.72425 13.2852 4.70449L13.4986 4.55195L13.712 4.70449C13.7396 4.72425 13.7765 4.69746 13.7663 4.66507L13.6872 4.41499L13.8982 4.25917C13.9255 4.23902 13.9114 4.19566 13.8775 4.19542L13.6152 4.19339L13.5322 3.94456C13.5213 3.91234 13.4758 3.91234 13.465 3.94456Z" fill="#F5F5F5"/>
<path d="M13.465 6.24664L13.3821 6.49547L13.1198 6.4975C13.0858 6.49778 13.0717 6.5411 13.099 6.56129L13.3101 6.71711L13.231 6.96719C13.2207 6.99957 13.2576 7.02637 13.2852 7.0066L13.4986 6.85407L13.712 7.0066C13.7396 7.02637 13.7765 6.99957 13.7663 6.96719L13.6872 6.71711L13.8982 6.56129C13.9255 6.54114 13.9114 6.49778 13.8775 6.4975L13.6152 6.49547L13.5322 6.24664C13.5213 6.21442 13.4758 6.21442 13.465 6.24664Z" fill="#F5F5F5"/>
<path d="M13.465 8.43379L13.3821 8.68262L13.1198 8.68465C13.0858 8.68493 13.0717 8.72825 13.099 8.74844L13.3101 8.90426L13.231 9.15434C13.2207 9.18672 13.2576 9.21348 13.2852 9.19375L13.4986 9.04122L13.712 9.19375C13.7396 9.21352 13.7765 9.18672 13.7663 9.15434L13.6872 8.90426L13.8982 8.74844C13.9255 8.72829 13.9114 8.68493 13.8775 8.68465L13.6152 8.68262L13.5322 8.43379C13.5213 8.40161 13.4758 8.40161 13.465 8.43379Z" fill="#F5F5F5"/>
<path d="M13.465 10.3979L13.3821 10.6468L13.1198 10.6488C13.0858 10.6491 13.0717 10.6924 13.099 10.7126L13.3101 10.8684L13.231 11.1185C13.2207 11.1509 13.2576 11.1777 13.2852 11.1579L13.4986 11.0054L13.712 11.1579C13.7396 11.1777 13.7765 11.1509 13.7663 11.1185L13.6872 10.8684L13.8982 10.7126C13.9255 10.6924 13.9114 10.6491 13.8775 10.6488L13.6152 10.6468L13.5322 10.3979C13.5213 10.3657 13.4758 10.3657 13.465 10.3979Z" fill="#F5F5F5"/>
<path d="M12.4548 2.96164L12.3718 3.21047L12.1095 3.2125C12.0756 3.21277 12.0615 3.25609 12.0888 3.27625L12.2998 3.43207L12.2207 3.68215C12.2105 3.71453 12.2473 3.74129 12.275 3.72156L12.4884 3.56902L12.7018 3.72156C12.7294 3.74133 12.7663 3.71453 12.756 3.68215L12.6769 3.43207L12.8879 3.27625C12.9152 3.25609 12.9012 3.21273 12.8672 3.2125L12.605 3.21047L12.522 2.96164C12.5111 2.92945 12.4655 2.92945 12.4548 2.96164Z" fill="#F5F5F5"/>
<path d="M12.4548 5.03731L12.3718 5.28614L12.1095 5.28817C12.0756 5.28844 12.0615 5.33176 12.0888 5.35196L12.2998 5.50778L12.2207 5.75785C12.2105 5.79024 12.2473 5.817 12.275 5.79727L12.4884 5.64473L12.7018 5.79727C12.7294 5.81703 12.7663 5.79024 12.756 5.75785L12.6769 5.50778L12.8879 5.35196C12.9152 5.3318 12.9012 5.28844 12.8672 5.28817L12.605 5.28614L12.522 5.03731C12.5111 5.00508 12.4655 5.00508 12.4548 5.03731Z" fill="#F5F5F5"/>
<path d="M12.4548 7.33937L12.3718 7.5882L12.1095 7.59023C12.0756 7.5905 12.0615 7.63382 12.0888 7.65402L12.2998 7.80984L12.2207 8.05992C12.2105 8.0923 12.2473 8.11906 12.275 8.09933L12.4884 7.94683L12.7018 8.09933C12.7294 8.11906 12.7663 8.0923 12.756 8.05992L12.6769 7.80984L12.8879 7.65402C12.9152 7.63386 12.9012 7.5905 12.8672 7.59023L12.605 7.5882L12.522 7.33937C12.5111 7.30714 12.4655 7.30714 12.4548 7.33937Z" fill="#F5F5F5"/>
<path d="M12.4548 9.45445L12.3718 9.70328L12.1095 9.70531C12.0756 9.70558 12.0615 9.74891 12.0888 9.7691L12.2998 9.92492L12.2207 10.175C12.2105 10.2074 12.2473 10.2341 12.275 10.2144L12.4884 10.0619L12.7018 10.2144C12.7294 10.2341 12.7663 10.2074 12.756 10.175L12.6769 9.92492L12.8879 9.7691C12.9152 9.74894 12.9012 9.70558 12.8672 9.70531L12.605 9.70328L12.522 9.45445C12.5111 9.42223 12.4655 9.42223 12.4548 9.45445Z" fill="#F5F5F5"/>
<path d="M12.4548 11.3792L12.3718 11.628L12.1095 11.63C12.0756 11.6303 12.0615 11.6736 12.0888 11.6938L12.2998 11.8496L12.2207 12.0997C12.2105 12.1321 12.2473 12.1588 12.275 12.1391L12.4884 11.9866L12.7018 12.1391C12.7294 12.1588 12.7663 12.1321 12.756 12.0997L12.6769 11.8496L12.8879 11.6938C12.9152 11.6736 12.9012 11.6303 12.8672 11.63L12.605 11.628L12.522 11.3792C12.5111 11.3469 12.4655 11.3469 12.4548 11.3792Z" fill="#F5F5F5"/>
</g>
<rect x="1" y="-1" width="22" height="22" rx="3" transform="matrix(-1 0 0 1 24 2)" stroke="#8B9DB0" stroke-width="2"/>
<defs>
<clipPath id="clip0_39_846">
<rect width="20" height="20" rx="2" transform="matrix(-1 0 0 1 22 2)" fill="white"/>
</clipPath>
</defs>
</svg>
