<svg width="15" height="14" viewBox="0 0 15 14" fill="none" xmlns="http://www.w3.org/2000/svg">
<path d="M9.76151 2.87141C8.9147 1.14283 7.14331 0 5.15635 0C2.31325 0 0.000225769 2.29922 0.000225769 5.12531C0.000225769 5.89335 0.165163 6.62949 0.490702 7.31585L0.00875096 9.72518C-0.0525952 10.0319 0.218043 10.303 0.524891 10.2423L2.96465 9.76006C3.29315 9.91584 3.63298 10.0343 3.98216 10.1159C3.19946 6.40986 6.00943 2.93109 9.76151 2.87141Z" fill="white"/>
<path d="M14.5094 11.0646C14.5936 10.8871 14.6668 10.7062 14.7294 10.5224H14.7134C15.8104 7.30321 13.5033 3.9198 10.0972 3.75506C10.0972 3.75488 10.0972 3.75471 10.0971 3.75453C7.16642 3.61951 4.73156 5.96533 4.73156 8.8741C4.73156 11.6978 7.02724 13.9952 9.85086 13.9993C10.6168 13.9983 11.3509 13.8335 12.0354 13.5089C14.7074 14.037 14.4991 13.9994 14.5604 13.9994C14.8381 13.9994 15.0456 13.745 14.9913 13.474L14.5094 11.0646Z" fill="white"/>
</svg>
