<svg width="52" height="65" viewBox="0 0 52 65" fill="none" xmlns="http://www.w3.org/2000/svg">
<path d="M19.0074 44.0367C23.6863 43.6597 28.3867 43.6597 33.0656 44.0367C35.6136 44.1853 38.1494 44.504 40.6571 44.9909C46.0836 46.0896 49.6262 47.8823 51.1445 50.7738C52.2848 53.0304 52.2848 55.7168 51.1445 57.9735C49.6262 60.8649 46.2241 62.7733 40.6009 63.7564C38.0951 64.2617 35.5587 64.5901 33.0094 64.7395C30.6476 64.9997 28.2859 64.9997 25.896 64.9997H21.5941C20.6944 64.8841 19.8228 64.8262 18.9793 64.8262C16.4299 64.6951 13.8929 64.3762 11.3879 63.872C5.96139 62.8311 2.41871 60.9806 0.900424 58.0891C0.31431 56.9691 0.00531074 55.7179 0.000338706 54.4459C-0.011519 53.1662 0.288135 51.9038 0.872308 50.7738C2.36248 47.8823 5.90515 46.0029 11.3879 44.9909C13.904 44.497 16.4496 44.1782 19.0074 44.0367ZM26.0084 0C35.4341 0 43.0751 7.85789 43.0751 17.5511C43.0751 27.2443 35.4341 35.1022 26.0084 35.1022C16.5827 35.1022 8.94173 27.2443 8.94173 17.5511C8.94173 7.85789 16.5827 0 26.0084 0Z" fill="#13CF97"/>
</svg>
