<svg width="8" height="8" viewBox="0 0 8 8" fill="none" xmlns="http://www.w3.org/2000/svg">
<path d="M5.97564 0C6.51204 0 7.02805 0.212001 7.40765 0.592404C7.78765 0.972006 8.00005 1.48401 8.00005 2.02001V5.18003C8.00005 6.29604 7.09205 7.20005 5.97564 7.20005H2.02401C0.907606 7.20005 0 6.29604 0 5.18003V2.02001C0 0.904006 0.903606 0 2.02401 0H5.97564ZM6.42804 2.08001C6.34404 2.07561 6.26404 2.10401 6.20364 2.16001L4.40003 3.60002C4.16803 3.79243 3.83563 3.79243 3.60002 3.60002L1.80001 2.16001C1.67561 2.06801 1.50361 2.08001 1.40001 2.18801C1.29201 2.29602 1.28001 2.46802 1.37161 2.58802L1.42401 2.64002L3.24402 4.06003C3.46802 4.23603 3.73963 4.33203 4.02403 4.33203C4.30763 4.33203 4.58403 4.23603 4.80763 4.06003L6.61204 2.61602L6.64404 2.58402C6.73965 2.46802 6.73965 2.30002 6.63964 2.18401C6.58404 2.12441 6.50764 2.08801 6.42804 2.08001Z" fill="#E7EAEF"/>
</svg>
