<svg width="43" height="37" viewBox="0 0 43 37" fill="none" xmlns="http://www.w3.org/2000/svg">
<path d="M28.5722 32.1654C28.5722 34.8313 30.7688 37 33.4689 37C36.1682 37 38.3656 34.8313 38.3656 32.1654C38.3656 29.4995 36.1682 27.3308 33.4689 27.3308C30.7688 27.3308 28.5722 29.4995 28.5722 32.1654ZM10.5594 27.3308C13.2587 27.3308 15.4561 29.4995 15.4561 32.1654C15.4561 34.8313 13.2587 37 10.5594 37C7.85923 37 5.66271 34.8313 5.66271 32.1654C5.66271 29.4995 7.85923 27.3308 10.5594 27.3308ZM17.3769 21.8055H13.002C11.9481 21.8055 10.9635 21.3448 10.2965 20.5407L8.36848 17.7799C8.11464 17.4164 8.26583 16.9135 8.6803 16.7477C11.1687 15.752 14.152 15.0183 17.4768 15.0829C17.894 15.0911 18.2123 15.4545 18.1586 15.863L17.3769 21.8055ZM3.0456 19.8441C3.84613 19.2702 4.85546 18.6152 6.04465 17.9782C6.35988 17.8093 6.75336 17.9004 6.95692 18.1919L9.16035 21.3472C9.94408 22.3867 11.3828 23.1868 13.0021 23.1868C13.4985 23.1868 34.817 23.1868 34.472 23.1868C36.4883 23.1868 38.4953 23.4569 40.438 23.9897C41.9384 24.4012 43 25.7643 43 27.3178V32.1481C43 32.5295 42.6868 32.8388 42.3005 32.8388H40.4646C40.0782 32.8388 39.7663 32.5295 39.7658 32.148C39.7609 28.7745 36.9724 25.9495 33.469 25.9495C29.8905 25.9495 27.0837 28.8851 27.1745 32.318C27.1848 32.7071 26.8703 33.0287 26.476 33.0287H17.5524C17.1581 33.0287 16.8437 32.7071 16.8539 32.318C16.9442 28.8894 14.1426 25.9495 10.5594 25.9495C6.99619 25.9495 4.17744 28.869 4.26427 32.3105C4.27406 32.6992 3.95954 33.0201 3.56579 33.0201H1.72787C1.34155 33.0201 1.02834 32.7108 1.02834 32.3294V23.7549C1.02834 22.2113 1.78208 20.7497 3.0456 19.8441ZM18.7878 21.8055L19.5602 15.9327C19.6111 15.5459 19.9757 15.2775 20.3657 15.3394C24.5369 16.0018 28.2969 17.8587 31.4121 20.6002C31.8914 21.022 31.5871 21.8055 30.945 21.8055H18.7878ZM7.94492 12.2011C8.77054 13.0162 8.17891 14.4121 7.01805 14.4121C6.28966 14.4121 5.70643 13.8305 5.70643 13.1171C5.70643 11.9579 7.12735 11.3939 7.94492 12.2011ZM3.80249 9.94273C5.57956 8.1882 8.45567 8.18812 10.2328 9.94273C10.5061 10.2124 10.5061 10.6497 10.2328 10.9195C9.95965 11.1892 9.51676 11.1892 9.2436 10.9195C8.0133 9.7048 6.02227 9.70471 4.7918 10.9195C4.65522 11.0543 4.47623 11.1218 4.29715 11.1218C3.67955 11.1218 3.36048 10.3791 3.80249 9.94273ZM1.20567 7.37875C4.41799 4.20726 9.61723 4.20691 12.8297 7.37875C13.103 7.64845 13.103 8.08573 12.8297 8.35551C12.5566 8.62522 12.1137 8.62522 11.8405 8.35551C9.17495 5.72377 4.86079 5.72359 2.19498 8.35551C2.0584 8.49036 1.87941 8.55779 1.70033 8.55779C1.08264 8.55779 0.763744 7.81508 1.20567 7.37875Z" fill="#31373E"/>
<circle cx="7.5" cy="7.5" r="7.5" fill="#13CF97"/>
<path d="M10 6L6.5625 9L5 7.63636" stroke="white" stroke-linecap="round" stroke-linejoin="round"/>
</svg>
