<svg width="15" height="16" viewBox="0 0 15 16" fill="none" xmlns="http://www.w3.org/2000/svg">
<path d="M0.693642 14.4236L0.138728 7.79497L0 6.26273L5.58382 0.849937C6.22197 0.143776 7.16763 -0.0105581 7.56069 0.00054508C8.53179 0.0538403 9.15607 0.511291 9.34682 0.733354L15 6.1628L14.8266 7.69504L14.3064 14.5568C14.1538 15.5827 13.2601 15.9391 12.8324 15.9891H10.6647C10.3734 15.9758 10.3006 15.7282 10.3006 15.606V10.7095C10.1896 9.44379 9.16763 9.08293 8.67052 9.06073H6.46821C5.05318 9.14067 4.7341 10.2377 4.75144 10.7762L4.7341 15.4895C4.81734 15.9558 4.46821 16.0169 4.28324 15.9891H2.54913C1.14798 16.1223 0.728324 15.0009 0.693642 14.4236Z" fill="#E7EAEF"/>
</svg>
