<svg width="13" height="13" viewBox="0 0 13 13" fill="none" xmlns="http://www.w3.org/2000/svg">
<path d="M9.57788 1.00136C9.73683 0.842407 9.92553 0.716321 10.1332 0.630298C10.3409 0.544275 10.5635 0.5 10.7883 0.5C11.013 0.5 11.2356 0.544275 11.4433 0.630298C11.651 0.716321 11.8397 0.842407 11.9986 1.00136C12.1576 1.16031 12.2837 1.34901 12.3697 1.55669C12.4557 1.76436 12.5 1.98695 12.5 2.21174C12.5 2.43653 12.4557 2.65912 12.3697 2.8668C12.2837 3.07447 12.1576 3.26317 11.9986 3.42212L3.82855 11.5922L0.5 12.5L1.40779 9.17145L9.57788 1.00136Z" stroke="white" stroke-linecap="round" stroke-linejoin="round"/>
</svg>
