<svg width="10" height="13" viewBox="0 0 10 13" fill="none" xmlns="http://www.w3.org/2000/svg">
<path d="M5 0C2.24299 0 0 2.11205 0 4.70809C0 7.92986 4.47451 12.6596 4.66502 12.8594C4.84395 13.047 5.15637 13.0467 5.33498 12.8594C5.52549 12.6596 10 7.92986 10 4.70809C9.99995 2.11205 7.75699 0 5 0ZM5 7.07686C3.61288 7.07686 2.4844 6.01423 2.4844 4.70809C2.4844 3.40194 3.6129 2.33934 5 2.33934C6.3871 2.33934 7.51557 3.40197 7.51557 4.70811C7.51557 6.01426 6.3871 7.07686 5 7.07686Z" fill="white"/>
</svg>
