<svg width="39" height="39" viewBox="0 0 39 39" fill="none" xmlns="http://www.w3.org/2000/svg">
<g clip-path="url(#clip0_6_45)">
<path d="M24.3655 19.4999C24.3655 26.2317 18.9121 31.6863 12.1827 31.6863C5.45335 31.6863 0 26.2305 0 19.4999C0 12.7694 5.45469 7.3136 12.1827 7.3136C18.9108 7.3136 24.3655 12.7694 24.3655 19.4999Z" fill="#E2574C"/>
<path d="M26.8139 7.3136C24.0817 7.3136 21.5664 8.22394 19.5337 9.74362L19.5435 9.74483C19.9433 10.1311 20.3843 10.403 20.7243 10.8476L18.1895 10.8879C17.7923 11.2888 17.4304 11.7251 17.0891 12.1785H21.559C21.8991 12.5866 22.2134 12.9414 22.4987 13.3922H16.2788C16.0509 13.7846 15.8401 14.188 15.6561 14.6071H23.2068C23.4042 15.0251 23.5809 15.3408 23.7308 15.7832H15.2088C15.0736 16.2037 14.9578 16.6338 14.87 17.0725H24.0878C24.1781 17.4941 24.2474 17.884 24.295 18.2814H14.6872C14.647 18.6824 14.6262 19.0893 14.6262 19.5001H24.3644C24.3644 19.9315 24.3339 20.3312 24.2901 20.7188H14.6872C14.7286 21.1319 14.7896 21.5377 14.87 21.9374H24.0731C23.9781 22.3323 23.8684 22.7295 23.7307 23.1414H15.1808C15.3099 23.5582 15.4672 23.9628 15.639 24.3576H23.2068C22.9972 24.8012 22.7596 25.1558 22.4976 25.5713H16.257C16.5032 25.9978 16.7749 26.4048 17.0698 26.7948L21.5592 26.8618C21.1765 27.3212 20.6855 27.5978 20.2381 28C20.2624 28.0195 19.5228 27.9976 18.0664 27.9745C20.2819 30.2607 23.3785 31.6864 26.8138 31.6864C33.5444 31.6864 39.0001 26.2305 39.0001 19.5001C39.0001 12.7696 33.5456 7.3136 26.8139 7.3136Z" fill="#F4B459"/>
</g>
<defs>
<clipPath id="clip0_6_45">
<rect width="38.209" height="38.209" fill="white" transform="scale(1.0207)"/>
</clipPath>
</defs>
</svg>
