<svg width="102" height="43" viewBox="0 0 102 43" fill="none" xmlns="http://www.w3.org/2000/svg">
<rect x="59.5" y="0.5" width="42" height="42" rx="5.5" stroke="#E7EAEF"/>
<path d="M88.875 27C88.6365 27 88.398 26.9235 88.2 26.775L85.476 24.7321C85.302 26.0115 84.201 27 82.875 27H74.625C73.1775 27 72 25.8225 72 24.3751V17.2503C72 16.2124 72.687 15.0004 74.625 15.0004H82.875C84.273 15.0004 85.419 16.0984 85.4955 17.4768L88.155 15.2614C88.488 14.9809 88.956 14.9209 89.352 15.1069C89.748 15.2914 90 15.6889 90 16.1254V25.875C90 26.301 89.7585 26.691 89.3775 26.8815C89.2185 26.961 89.046 27 88.875 27Z" fill="#13CF97"/>
<rect x="0.5" y="0.5" width="42" height="42" rx="5.5" stroke="#E7EAEF"/>
<path fill-rule="evenodd" clip-rule="evenodd" d="M19.2967 13C17.476 13 16 14.3382 16 15.989V26.011C16 27.6618 17.476 29 19.2967 29H24.7033C26.524 29 28 27.6618 28 26.011V15.989C28 14.3382 26.524 13 24.7033 13H19.2967ZM20.1181 15.88C19.2077 15.88 18.4697 16.5491 18.4697 17.3745V23.3455C18.4697 24.1709 19.2077 24.84 20.1181 24.84H23.8802C24.7906 24.84 25.5286 24.1709 25.5286 23.3455V17.3745C25.5286 16.5491 24.7906 15.88 23.8802 15.88H20.1181Z" fill="#13CF97"/>
<circle cx="22" cy="27" r="1" fill="white"/>
</svg>
