<svg width="13" height="15" viewBox="0 0 13 15" fill="none" xmlns="http://www.w3.org/2000/svg">
<path d="M6.52288 1.49074e-05C8.2511 0.0075308 9.90285 0.682614 11.1111 1.86776C12.3269 3.06041 13.0075 4.6731 12.9999 6.34581V6.38332C12.954 8.65609 11.654 10.7489 10.0328 12.3841C9.11521 13.3067 8.09816 14.1243 6.98934 14.8144C6.69111 15.0619 6.25523 15.0619 5.957 14.8144C4.3129 13.7642 2.85997 12.4441 1.68234 10.9064C0.649994 9.57121 0.0611759 7.96601 0 6.2933C0.015294 2.80538 2.93644 -0.00747105 6.52288 1.49074e-05ZM6.52288 4.44808C5.38348 4.44808 4.46584 5.34069 4.46584 6.45082C4.46584 7.54671 5.36818 8.43107 6.49994 8.44607H6.52288C7.06581 8.44607 7.58581 8.24354 7.96816 7.876C8.3658 7.49345 8.58833 6.98414 8.58833 6.45082C8.58833 5.34069 7.66228 4.44808 6.52288 4.44808Z" fill="#00AFCD"/>
</svg>
