<svg width="30" height="30" viewBox="0 0 30 30" fill="none" xmlns="http://www.w3.org/2000/svg">
<g clip-path="url(#clip0_0_69)">
<path d="M23.9062 15L29.0625 9.84375L20.1562 0.9375L6.09375 15" fill="#78B75B"/>
<path d="M10.3125 15C10.3125 13.8005 10.77 12.6009 11.6855 11.6855C13.5159 9.855 16.4841 9.855 18.3145 11.6855C19.23 12.6009 19.6875 13.8005 19.6875 15" fill="#669E4F"/>
<path d="M18.2001 15.6628C18.2001 15.1622 18.0051 14.6911 17.6507 14.3367C16.9429 13.6284 15.7073 13.6284 14.9999 14.3367L13.6738 13.0106C14.0399 12.6455 14.6338 12.6459 14.9999 13.0111L15.6623 12.3478C14.932 11.6175 13.7423 11.617 13.011 12.3478L12.6796 12.0164L12.0163 12.6797L12.3482 13.0116C11.9938 13.3655 11.7993 13.8361 11.7993 14.3372C11.7988 14.8378 11.9943 15.3089 12.3487 15.6633C12.7026 16.0172 13.1737 16.2122 13.6743 16.2122C14.1749 16.2122 14.6456 16.0172 14.9995 15.6633L16.3256 16.9894C15.9595 17.3545 15.3656 17.3541 14.9995 16.9889L14.3371 17.6522C14.7023 18.0173 15.1827 18.2001 15.6627 18.2001C16.1427 18.2001 16.6227 18.0173 16.9884 17.6522L17.3198 17.9836L17.9831 17.3203L17.6512 16.9884C18.0051 16.6341 18.2001 16.1634 18.2001 15.6628ZM14.3362 15C13.9828 15.3539 13.3645 15.3539 13.011 15C12.8338 14.8228 12.7359 14.5875 12.7363 14.3372C12.7363 14.0869 12.8338 13.8516 13.0106 13.6744L14.3362 15ZM15.6627 14.9995C16.0162 14.6456 16.6345 14.6456 16.9879 14.9995C17.1651 15.1767 17.2626 15.412 17.2626 15.6623C17.2626 15.9126 17.1651 16.148 16.9884 16.3251L15.6627 14.9995Z" fill="#78B75B"/>
<path d="M22.6041 14.025L21.9408 13.3617L25.5868 9.71578L20.2833 4.41281L16.6374 8.05875L15.9741 7.39547L19.9515 3.41812C20.1347 3.23531 20.4315 3.23484 20.6147 3.41812L26.5815 9.38437C26.6696 9.4725 26.7183 9.59156 26.7183 9.71578C26.7183 9.84047 26.6696 9.95953 26.5815 10.0477L22.6041 14.025Z" fill="#669E4F"/>
<path d="M20.626 12.0286L21.2888 11.3649L21.9525 12.0277L21.2897 12.6915L20.626 12.0286Z" fill="#96CC7F"/>
<path d="M21.9385 10.7158L22.6014 10.0528L23.2646 10.7161L22.6017 11.379L21.9385 10.7158Z" fill="#96CC7F"/>
<path d="M17.311 8.72113L17.9748 8.05832L18.6373 8.72174L17.9735 9.38455L17.311 8.72113Z" fill="#96CC7F"/>
<path d="M18.6245 7.4003L19.2874 6.73738L19.9507 7.40063L19.2878 8.06354L18.6245 7.4003Z" fill="#96CC7F"/>
<path d="M0.9375 15H29.0625V27.1875H0.9375V15Z" fill="#96CC7F"/>
<path d="M15 25.7812C17.5888 25.7812 19.6875 23.6826 19.6875 21.0937C19.6875 18.5049 17.5888 16.4062 15 16.4062C12.4112 16.4062 10.3125 18.5049 10.3125 21.0937C10.3125 23.6826 12.4112 25.7812 15 25.7812Z" fill="#78B75B"/>
<path d="M7.96875 27.1875L9.84375 29.0625L11.7188 27.1875" fill="#78B75B"/>
<path d="M15.4687 20.625H15.4678V18.75H15.4687C15.9853 18.75 16.4053 19.1705 16.4053 19.6875H17.3428C17.3428 18.6534 16.5019 17.8125 15.4687 17.8125H15.4678V17.3438H14.5308V17.8125C13.4967 17.8125 12.6558 18.6534 12.6558 19.6875C12.6558 20.7211 13.4967 21.562 14.5308 21.562V23.437C14.0133 23.437 13.5933 23.0166 13.5933 22.4995L12.6558 22.5C12.6558 23.5336 13.4967 24.3745 14.5308 24.3745V24.8433H15.4678V24.3745H15.4687C16.5019 24.3745 17.3428 23.5336 17.3428 22.4995C17.3428 21.4655 16.5019 20.625 15.4687 20.625ZM13.5933 19.6875C13.5933 19.1705 14.0133 18.75 14.5308 18.75V20.625C14.0137 20.625 13.5933 20.2041 13.5933 19.6875ZM15.4687 23.437H15.4678V21.562H15.4687C15.9853 21.562 16.4053 21.9825 16.4053 22.5C16.4053 23.0166 15.9853 23.437 15.4687 23.437Z" fill="#669E4F"/>
<path d="M27.1865 25.7808H21.562V24.8433H26.7178V17.3437H21.562V16.4062H27.1865C27.4458 16.4062 27.6553 16.6158 27.6553 16.875V25.3125C27.6553 25.5712 27.4458 25.7808 27.1865 25.7808Z" fill="#669E4F"/>
<path d="M8.43703 25.7812H2.8125C2.55328 25.7812 2.34375 25.5712 2.34375 25.3125V16.875C2.34375 16.6158 2.55328 16.4062 2.81203 16.4062H8.43703L8.4375 17.3437H3.28125V24.8437H8.43703V25.7812Z" fill="#669E4F"/>
<path d="M21.562 22.9688H22.499V23.9062H21.562V22.9688Z" fill="#78B75B"/>
<path d="M23.437 22.9688H24.374V23.9062H23.437V22.9688Z" fill="#78B75B"/>
<path d="M21.562 18.2812H22.499V19.2188H21.562V18.2812Z" fill="#78B75B"/>
<path d="M23.437 18.2812H24.374V19.2188H23.437V18.2812Z" fill="#78B75B"/>
<path d="M5.625 18.2812H6.56203V19.2188H5.625V18.2812Z" fill="#78B75B"/>
<path d="M7.5 18.2812H8.43703V19.2188H7.5V18.2812Z" fill="#78B75B"/>
<path d="M5.625 22.9688H6.56203V23.9062H5.625V22.9688Z" fill="#78B75B"/>
<path d="M7.5 22.9688H8.43703V23.9062H7.5V22.9688Z" fill="#78B75B"/>
<path d="M29.062 14.5308H25.0378L29.3939 10.1752C29.482 10.087 29.5307 9.96797 29.5312 9.84375C29.5312 9.71906 29.482 9.6 29.3939 9.51187L20.4876 0.605623C20.3043 0.422342 20.0076 0.423279 19.8243 0.605623L5.89871 14.5308H0.936523C0.677773 14.5308 0.467773 14.7408 0.467773 14.9995V27.187C0.467773 27.4458 0.677773 27.6558 0.936523 27.6558H7.77371L9.51137 29.3934C9.59996 29.4816 9.71902 29.5312 9.84371 29.5308C9.96793 29.5308 10.0875 29.4816 10.1751 29.3939L11.9128 27.6562H29.062C29.3207 27.6562 29.5307 27.4462 29.5307 27.1875V15C29.5307 14.7408 29.3207 14.5308 29.062 14.5308ZM20.1557 1.60031L28.3992 9.84328L23.7117 14.5308H20.1328C20.0254 13.3303 19.5084 12.2161 18.6459 11.3536C16.635 9.34359 13.364 9.34359 11.354 11.3536C10.4911 12.2161 9.97356 13.3308 9.86668 14.5308H7.22574L20.1557 1.60031ZM12.7621 14.5308C12.6989 14.2266 12.7842 13.9008 13.0106 13.6744L13.867 14.5308H12.7621ZM17.8186 14.5308C17.767 14.4628 17.7117 14.3977 17.6507 14.3367C16.9429 13.6284 15.7073 13.6284 15 14.3367L13.6739 13.0106C14.04 12.6455 14.6339 12.6455 15 13.0111L15.6623 12.3478C14.932 11.6175 13.7423 11.617 13.0111 12.3478L12.6796 12.0164L12.0164 12.6797L12.3482 13.0116C11.9362 13.4231 11.7539 13.9814 11.8125 14.5312H10.8093C10.9134 13.582 11.3315 12.7027 12.0173 12.0173C13.6617 10.372 16.3382 10.3725 17.9836 12.0173C18.6684 12.7022 19.0865 13.582 19.1911 14.5312H17.8186V14.5308ZM9.84324 28.3992L9.10027 27.6562H10.5862L9.84324 28.3992ZM28.5932 26.7187H1.40527V15.4687H28.5932V26.7187Z" fill="black"/>
<path d="M13.5933 22.4995L12.6558 22.5C12.6558 23.5336 13.4967 24.3745 14.5308 24.3745V24.8433H15.4678V24.3745H15.4687C16.5019 24.3745 17.3428 23.5336 17.3428 22.4995C17.3428 21.4655 16.5019 20.6245 15.4687 20.6245H15.4678V18.7495H15.4687C15.9853 18.7495 16.4053 19.17 16.4053 19.687H17.3428C17.3428 18.653 16.5019 17.812 15.4687 17.812H15.4678V17.3433H14.5308V17.812C13.4967 17.812 12.6558 18.653 12.6558 19.687C12.6558 20.7206 13.4967 21.5616 14.5308 21.5616V23.4366C14.0137 23.437 13.5933 23.0166 13.5933 22.4995ZM13.5933 19.6875C13.5933 19.1705 14.0133 18.75 14.5308 18.75V20.625C14.0137 20.625 13.5933 20.2041 13.5933 19.6875ZM15.4678 21.562H15.4687C15.9853 21.562 16.4053 21.9825 16.4053 22.5C16.4053 23.0166 15.9853 23.437 15.4687 23.437H15.4678V21.562Z" fill="black"/>
<path d="M14.9995 26.2495C17.842 26.2495 20.1553 23.9362 20.1553 21.0933C20.1553 18.2503 17.842 15.937 14.9995 15.937C12.1566 15.9375 9.84375 18.2503 9.84375 21.0937C9.84375 23.9362 12.1566 26.2495 14.9995 26.2495ZM14.9995 16.875C17.3255 16.875 19.2178 18.7673 19.2178 21.0937C19.2178 23.4197 17.3255 25.3125 14.9995 25.3125C12.6731 25.3125 10.7813 23.4202 10.7813 21.0937C10.7813 18.7673 12.6731 16.875 14.9995 16.875Z" fill="black"/>
<path d="M27.6553 25.312V16.875C27.6553 16.6158 27.4458 16.4062 27.1865 16.4062H21.562V17.3437H26.7178V24.8437H21.562V25.7812H27.1865C27.4458 25.7808 27.6553 25.5712 27.6553 25.312Z" fill="black"/>
<path d="M2.8125 25.7812H8.43703V24.8437H3.28125V17.3437H8.4375L8.43703 16.4062H2.81203C2.55328 16.4062 2.34375 16.6158 2.34375 16.875V25.3125C2.34375 25.5712 2.55328 25.7812 2.8125 25.7812Z" fill="black"/>
<path d="M21.562 22.9688H22.499V23.9062H21.562V22.9688Z" fill="black"/>
<path d="M23.437 22.9688H24.374V23.9062H23.437V22.9688Z" fill="black"/>
<path d="M21.562 18.2812H22.499V19.2188H21.562V18.2812Z" fill="black"/>
<path d="M23.437 18.2812H24.374V19.2188H23.437V18.2812Z" fill="black"/>
<path d="M20.2834 4.41281L25.5863 9.71625L21.9404 13.3622L22.6037 14.0255L26.581 10.0481C26.6691 9.96 26.7179 9.84094 26.7179 9.71625C26.7179 9.59203 26.6691 9.4725 26.581 9.38484L20.6152 3.41812C20.432 3.23484 20.1352 3.23531 19.952 3.41812L15.9746 7.39547L16.6379 8.05875L20.2834 4.41281Z" fill="black"/>
<path d="M20.6123 12.041L21.2752 11.3781L21.9381 12.041L21.2752 12.7039L20.6123 12.041Z" fill="black"/>
<path d="M21.937 10.7115L22.5999 10.0486L23.2632 10.7119L22.6003 11.3748L21.937 10.7115Z" fill="black"/>
<path d="M17.311 8.72115L17.9748 8.05833L18.6373 8.72175L17.9735 9.38457L17.311 8.72115Z" fill="black"/>
<path d="M18.6245 7.40028L19.2874 6.73737L19.9507 7.40062L19.2878 8.06353L18.6245 7.40028Z" fill="black"/>
<path d="M5.625 18.2812H6.56203V19.2188H5.625V18.2812Z" fill="black"/>
<path d="M7.5 18.2812H8.43703V19.2188H7.5V18.2812Z" fill="black"/>
<path d="M5.625 22.9688H6.56203V23.9062H5.625V22.9688Z" fill="black"/>
<path d="M7.5 22.9688H8.43703V23.9062H7.5V22.9688Z" fill="black"/>
</g>
<defs>
<clipPath id="clip0_0_69">
<rect width="30" height="30" fill="white"/>
</clipPath>
</defs>
</svg>
