<svg width="313" height="178" viewBox="0 0 313 178" fill="none" xmlns="http://www.w3.org/2000/svg">
<rect width="313" height="178" rx="10" fill="#3D3D3D"/>
<g clip-path="url(#clip0_53_1150)">
<path d="M44.0004 23C44.0004 27.292 40.5337 30.8 36.2004 30.8C31.9083 30.8 28.4004 27.292 28.4004 23C28.4004 18.7079 31.8671 15.2 36.1591 15.2C40.5337 15.2 44.0004 18.7079 44.0004 23Z" fill="#FFB600"/>
<path d="M36.2004 15.2C40.4925 15.2 44.0004 18.7079 44.0004 23C44.0004 27.292 40.5337 30.8 36.2004 30.8C31.9083 30.8 28.4004 27.292 28.4004 23" fill="#F7981D"/>
<path d="M36.2002 15.2C40.4923 15.2 44.0002 18.7079 44.0002 23C44.0002 27.292 40.5335 30.8 36.2002 30.8" fill="#FF8500"/>
<path d="M25.7175 15.2C21.4667 15.2413 18 18.7079 18 23C18 27.292 21.4667 30.8 25.8 30.8C27.8222 30.8 29.6381 30.0159 31.0413 28.7778C31.3302 28.5301 31.5778 28.2413 31.8254 27.9524H30.2159C30.0095 27.7047 29.8032 27.4159 29.6381 27.1682H32.4032C32.5683 26.9206 32.7333 26.6317 32.8571 26.3428H29.1841C29.0603 26.0952 28.9365 25.8063 28.854 25.5174H33.146C33.3937 24.7333 33.5587 23.9079 33.5587 23.0413C33.5587 22.4635 33.4762 21.927 33.3937 21.3905H28.6063C28.6476 21.1016 28.7302 20.8539 28.8127 20.5651H33.1048C33.0222 20.2762 32.8984 19.9873 32.7746 19.7397H29.1429C29.2667 19.4508 29.4317 19.2032 29.5968 18.9143H32.3619C32.1968 18.6254 31.9905 18.3365 31.7429 18.0889H30.2159C30.4635 17.8 30.7111 17.5524 31 17.3047C29.6381 16.0254 27.781 15.2825 25.7587 15.2825C25.7587 15.2 25.7587 15.2 25.7175 15.2Z" fill="#FF5050"/>
<path d="M18 23C18 27.2921 21.4667 30.8 25.8 30.8C27.8222 30.8 29.6381 30.0159 31.0413 28.7778C31.3302 28.5302 31.5778 28.2413 31.8254 27.9524H30.2159C30.0095 27.7048 29.8032 27.4159 29.6381 27.1682H32.4032C32.5683 26.9206 32.7333 26.6317 32.8571 26.3428H29.1841C29.0603 26.0952 28.9365 25.8063 28.854 25.5175H33.146C33.3937 24.7333 33.5587 23.9079 33.5587 23.0413C33.5587 22.4635 33.4762 21.927 33.3937 21.3905H28.6063C28.6476 21.1016 28.7302 20.854 28.8127 20.5651H33.1048C33.0222 20.2762 32.8984 19.9873 32.7746 19.7397H29.1429C29.2667 19.4508 29.4317 19.2032 29.5968 18.9143H32.3619C32.1968 18.6254 31.9905 18.3365 31.7429 18.0889H30.2159C30.4635 17.8 30.7111 17.5524 31 17.3048C29.6381 16.0254 27.781 15.2825 25.7587 15.2825H25.7175" fill="#E52836"/>
<path d="M25.8003 30.8C27.8225 30.8 29.6384 30.0159 31.0416 28.7778C31.3305 28.5302 31.5781 28.2413 31.8257 27.9524H30.2162C30.0098 27.7048 29.8035 27.4159 29.6384 27.1682H32.4035C32.5686 26.9206 32.7336 26.6317 32.8575 26.3428H29.1844C29.0606 26.0952 28.9368 25.8063 28.8543 25.5175H33.1463C33.394 24.7333 33.559 23.9079 33.559 23.0413C33.559 22.4635 33.4765 21.927 33.394 21.3905H28.6067C28.6479 21.1016 28.7305 20.854 28.813 20.5651H33.1051C33.0225 20.2762 32.8987 19.9873 32.7749 19.7397H29.1432C29.267 19.4508 29.4321 19.2032 29.5971 18.9143H32.3622C32.1971 18.6254 31.9908 18.3365 31.7432 18.0889H30.2162C30.4638 17.8 30.7114 17.5524 31.0003 17.3048C29.6384 16.0254 27.7813 15.2825 25.759 15.2825H25.7178" fill="#CB2026"/>
<path d="M28.566 24.981L28.6898 24.2794C28.6485 24.2794 28.566 24.3206 28.4834 24.3206C28.1945 24.3206 28.1533 24.1556 28.1945 24.073L28.4422 22.6286H28.8961L29.0199 21.8445H28.6072L28.6898 21.3492H27.8644C27.8644 21.3492 27.3691 24.073 27.3691 24.4032C27.3691 24.8984 27.658 25.1048 28.0295 25.1048C28.2771 25.1048 28.4834 25.0222 28.566 24.981Z" fill="white"/>
<path d="M28.8545 23.6603C28.8545 24.8159 29.6386 25.1048 30.2989 25.1048C30.918 25.1048 31.1656 24.981 31.1656 24.981L31.3307 24.1968C31.3307 24.1968 30.8767 24.4032 30.464 24.4032C29.5561 24.4032 29.7212 23.7429 29.7212 23.7429H31.4132C31.4132 23.7429 31.537 23.2064 31.537 23C31.537 22.4635 31.2481 21.8032 30.3402 21.8032C29.4735 21.7207 28.8545 22.6286 28.8545 23.6603ZM30.2989 22.4635C30.7529 22.4635 30.6704 23 30.6704 23.0413H29.7624C29.7624 23 29.845 22.4635 30.2989 22.4635Z" fill="white"/>
<path d="M35.5404 24.981L35.7054 24.073C35.7054 24.073 35.2927 24.2794 35.0038 24.2794C34.4261 24.2794 34.1784 23.8254 34.1784 23.3302C34.1784 22.3397 34.6737 21.8032 35.2515 21.8032C35.6642 21.8032 35.9943 22.0508 35.9943 22.0508L36.1181 21.1841C36.1181 21.1841 35.6229 20.9778 35.1689 20.9778C34.2197 20.9778 33.2705 21.8032 33.2705 23.3714C33.2705 24.4032 33.7657 25.1048 34.7562 25.1048C35.0864 25.1048 35.5404 24.981 35.5404 24.981Z" fill="white"/>
<path d="M24.0263 21.7206C23.4485 21.7206 23.0358 21.8857 23.0358 21.8857L22.912 22.5873C22.912 22.5873 23.2834 22.4222 23.8199 22.4222C24.1088 22.4222 24.3564 22.4635 24.3564 22.7111C24.3564 22.8762 24.3152 22.9175 24.3152 22.9175C24.3152 22.9175 24.0675 22.9175 23.9437 22.9175C23.2421 22.9175 22.458 23.2064 22.458 24.1556C22.458 24.8984 22.9532 25.0635 23.2421 25.0635C23.8199 25.0635 24.0675 24.6921 24.1088 24.6921L24.0675 25.0222H24.8104L25.1405 22.7524C25.1405 21.7619 24.3152 21.7206 24.0263 21.7206ZM24.1913 23.5778C24.1913 23.7016 24.1088 24.3619 23.6136 24.3619C23.3659 24.3619 23.2834 24.1556 23.2834 24.0318C23.2834 23.8254 23.4072 23.5365 24.0263 23.5365C24.1501 23.5778 24.1913 23.5778 24.1913 23.5778Z" fill="white"/>
<path d="M25.9238 25.0635C26.1302 25.0635 27.1619 25.1048 27.1619 23.9905C27.1619 22.9587 26.1714 23.1651 26.1714 22.7524C26.1714 22.546 26.3365 22.4635 26.6254 22.4635C26.7492 22.4635 27.2032 22.5048 27.2032 22.5048L27.327 21.7619C27.327 21.7619 27.0381 21.6794 26.5429 21.6794C25.9238 21.6794 25.3048 21.927 25.3048 22.7524C25.3048 23.7016 26.3365 23.6191 26.3365 23.9905C26.3365 24.2381 26.0476 24.2794 25.8413 24.2794C25.4698 24.2794 25.0984 24.1556 25.0984 24.1556L24.9746 24.8984C25.0159 24.981 25.2222 25.0635 25.9238 25.0635Z" fill="white"/>
<path d="M42.3905 21.0603L42.2254 22.1746C42.2254 22.1746 41.8952 21.7619 41.4413 21.7619C40.6984 21.7619 40.0381 22.6698 40.0381 23.7428C40.0381 24.4032 40.3682 25.1047 41.0698 25.1047C41.5651 25.1047 41.854 24.7746 41.854 24.7746L41.8127 25.0635H42.6381L43.2571 21.1016L42.3905 21.0603ZM42.019 23.2476C42.019 23.7016 41.8127 24.2794 41.3587 24.2794C41.0698 24.2794 40.9048 24.0317 40.9048 23.619C40.9048 22.9587 41.1936 22.546 41.5651 22.546C41.854 22.546 42.019 22.7524 42.019 23.2476Z" fill="white"/>
<path d="M19.5273 25.0222L20.0225 22.0508L20.1051 25.0222H20.6828L21.7559 22.0508L21.3019 25.0222H22.1686L22.8289 21.0603H21.467L20.6416 23.4952L20.6003 21.0603H19.4035L18.7432 25.0222H19.5273Z" fill="white"/>
<path d="M32.321 25.0222C32.5686 23.6603 32.6099 22.546 33.1877 22.7524C33.2702 22.2159 33.394 22.0095 33.4766 21.8032C33.4766 21.8032 33.4353 21.8032 33.3115 21.8032C32.9401 21.8032 32.6512 22.2984 32.6512 22.2984L32.7337 21.8445H31.9496L31.4131 25.0635H32.321V25.0222Z" fill="white"/>
<path d="M37.4384 21.7206C36.8606 21.7206 36.4479 21.8857 36.4479 21.8857L36.3241 22.5873C36.3241 22.5873 36.6955 22.4222 37.232 22.4222C37.5209 22.4222 37.7685 22.4635 37.7685 22.7111C37.7685 22.8762 37.7273 22.9175 37.7273 22.9175C37.7273 22.9175 37.4796 22.9175 37.3558 22.9175C36.6542 22.9175 35.8701 23.2064 35.8701 24.1556C35.8701 24.8984 36.3654 25.0635 36.6542 25.0635C37.232 25.0635 37.4796 24.6921 37.5209 24.6921L37.4796 25.0222H38.2225L38.5527 22.7524C38.5939 21.7619 37.7273 21.7206 37.4384 21.7206ZM37.6447 23.5778C37.6447 23.7016 37.5622 24.3619 37.0669 24.3619C36.8193 24.3619 36.7368 24.1556 36.7368 24.0318C36.7368 23.8254 36.8606 23.5365 37.4796 23.5365C37.6035 23.5778 37.6034 23.5778 37.6447 23.5778Z" fill="white"/>
<path d="M39.2536 25.0222C39.5013 23.6603 39.5425 22.546 40.1203 22.7524C40.2028 22.2159 40.3267 22.0095 40.4092 21.8032C40.4092 21.8032 40.3679 21.8032 40.2441 21.8032C39.8727 21.8032 39.5838 22.2984 39.5838 22.2984L39.6663 21.8445H38.8822L38.3457 25.0635H39.2536V25.0222Z" fill="white"/>
<path d="M27.2861 24.4032C27.2861 24.8984 27.575 25.1048 27.9465 25.1048C28.2353 25.1048 28.483 25.0222 28.5655 24.981L28.6893 24.2794C28.648 24.2794 28.5655 24.3206 28.483 24.3206C28.1941 24.3206 28.1528 24.1556 28.1941 24.073L28.4417 22.6286H28.8957L29.0195 21.8445H28.6068L28.6893 21.3492" fill="#DCE5E5"/>
<path d="M29.2676 23.6603C29.2676 24.8159 29.639 25.1048 30.2993 25.1048C30.9184 25.1048 31.166 24.981 31.166 24.981L31.3311 24.1968C31.3311 24.1968 30.8771 24.4032 30.4644 24.4032C29.5565 24.4032 29.7215 23.7429 29.7215 23.7429H31.4136C31.4136 23.7429 31.5374 23.2064 31.5374 23C31.5374 22.4635 31.2485 21.8032 30.3406 21.8032C29.4739 21.7207 29.2676 22.6286 29.2676 23.6603ZM30.2993 22.4635C30.7533 22.4635 30.8358 23 30.8358 23.0413H29.7628C29.7628 23 29.8454 22.4635 30.2993 22.4635Z" fill="#DCE5E5"/>
<path d="M35.5398 24.981L35.7048 24.073C35.7048 24.073 35.2921 24.2794 35.0033 24.2794C34.4255 24.2794 34.1779 23.8254 34.1779 23.3302C34.1779 22.3397 34.6731 21.8032 35.2509 21.8032C35.6636 21.8032 35.9937 22.0508 35.9937 22.0508L36.1175 21.1841C36.1175 21.1841 35.6223 20.9778 35.1683 20.9778C34.2191 20.9778 33.6826 21.8032 33.6826 23.3714C33.6826 24.4032 33.7652 25.1048 34.7556 25.1048C35.0858 25.1048 35.5398 24.981 35.5398 24.981Z" fill="#DCE5E5"/>
<path d="M22.912 22.6286C22.912 22.6286 23.2834 22.4635 23.8199 22.4635C24.1088 22.4635 24.3564 22.5048 24.3564 22.7524C24.3564 22.9175 24.3152 22.9587 24.3152 22.9587C24.3152 22.9587 24.0675 22.9587 23.9437 22.9587C23.2421 22.9587 22.458 23.2476 22.458 24.1968C22.458 24.9397 22.9532 25.1048 23.2421 25.1048C23.8199 25.1048 24.0675 24.7334 24.1088 24.7334L24.0675 25.0635H24.8104L25.1405 22.7937C25.1405 21.8445 24.3152 21.8032 23.985 21.8032L22.912 22.6286ZM24.604 23.5778C24.604 23.7016 24.1088 24.3619 23.6136 24.3619C23.3659 24.3619 23.2834 24.1556 23.2834 24.0318C23.2834 23.8254 23.4072 23.5365 24.0263 23.5365C24.1501 23.5778 24.604 23.5778 24.604 23.5778Z" fill="#DCE5E5"/>
<path d="M25.0166 24.981C25.0166 24.981 25.2642 25.0635 25.9658 25.0635C26.1722 25.0635 27.2039 25.1048 27.2039 23.9905C27.2039 22.9587 26.2134 23.1651 26.2134 22.7524C26.2134 22.546 26.3785 22.4635 26.6674 22.4635C26.7912 22.4635 27.2452 22.5048 27.2452 22.5048L27.369 21.7619C27.369 21.7619 27.0801 21.6794 26.5849 21.6794C25.9658 21.6794 25.7595 21.927 25.7595 22.7524C25.7595 23.7016 26.3785 23.6191 26.3785 23.9905C26.3785 24.2381 26.0896 24.2794 25.8833 24.2794" fill="#DCE5E5"/>
<path d="M42.2258 22.1746C42.2258 22.1746 41.8957 21.7619 41.4417 21.7619C40.6989 21.7619 40.4512 22.6698 40.4512 23.7429C40.4512 24.4032 40.3687 25.1048 41.0703 25.1048C41.5655 25.1048 41.8544 24.7746 41.8544 24.7746L41.8131 25.0635H42.6385L43.2576 21.1016L42.2258 22.1746ZM42.1846 23.2476C42.1846 23.7016 41.8131 24.2794 41.3592 24.2794C41.0703 24.2794 40.9052 24.0318 40.9052 23.6191C40.9052 22.9587 41.1941 22.546 41.5655 22.546C41.8544 22.546 42.1846 22.7524 42.1846 23.2476Z" fill="#DCE5E5"/>
<path d="M19.5273 25.0222L20.0225 22.0508L20.1051 25.0222H20.6828L21.7559 22.0508L21.3019 25.0222H22.1686L22.8289 21.0603H21.7971L20.6416 23.4952L20.6003 21.0603H20.1463L18.7432 25.0222H19.5273Z" fill="#DCE5E5"/>
<path d="M31.4541 25.0222H32.3208C32.5684 23.6603 32.6097 22.546 33.1874 22.7524C33.27 22.2159 33.3938 22.0095 33.4763 21.8032C33.4763 21.8032 33.4351 21.8032 33.3112 21.8032C32.9398 21.8032 32.6509 22.2984 32.6509 22.2984L32.7335 21.8445" fill="#DCE5E5"/>
<path d="M36.3241 22.6286C36.3241 22.6286 36.6955 22.4635 37.232 22.4635C37.5209 22.4635 37.7685 22.5048 37.7685 22.7524C37.7685 22.9175 37.7273 22.9587 37.7273 22.9587C37.7273 22.9587 37.4796 22.9587 37.3558 22.9587C36.6542 22.9587 35.8701 23.2476 35.8701 24.1968C35.8701 24.9397 36.3654 25.1048 36.6542 25.1048C37.232 25.1048 37.4796 24.7334 37.5209 24.7334L37.4796 25.0635H38.2225L38.5527 22.7937C38.5527 21.8445 37.7273 21.8032 37.3971 21.8032L36.3241 22.6286ZM38.0161 23.5778C38.0161 23.7016 37.5209 24.3619 37.0257 24.3619C36.7781 24.3619 36.6955 24.1556 36.6955 24.0318C36.6955 23.8254 36.8193 23.5365 37.4384 23.5365C37.6034 23.5778 38.0161 23.5778 38.0161 23.5778Z" fill="#DCE5E5"/>
<path d="M38.3877 25.0222H39.2544C39.502 23.6603 39.5432 22.546 40.121 22.7524C40.2036 22.2159 40.3274 22.0095 40.4099 21.8032C40.4099 21.8032 40.3686 21.8032 40.2448 21.8032C39.8734 21.8032 39.5845 22.2984 39.5845 22.2984L39.6671 21.8445" fill="#DCE5E5"/>
</g>
<path d="M0 90.7431V168C0 173.523 4.47715 178 9.99999 178H303C308.523 178 313 173.523 313 168V10C313 4.47715 308.523 0 303 0H260.873C197.071 123.035 79.4979 119.031 0 90.7431Z" fill="url(#paint0_linear_53_1150)"/>
<defs>
<linearGradient id="paint0_linear_53_1150" x1="163.5" y1="54" x2="187" y2="115" gradientUnits="userSpaceOnUse">
<stop stop-color="#444444"/>
<stop offset="1" stop-color="#444444" stop-opacity="0"/>
</linearGradient>
<clipPath id="clip0_53_1150">
<rect width="26" height="26" fill="white" transform="translate(18 10)"/>
</clipPath>
</defs>
</svg>
