<svg width="8" height="11" viewBox="0 0 8 11" fill="none" xmlns="http://www.w3.org/2000/svg">
<path fill-rule="evenodd" clip-rule="evenodd" d="M0 2.05495C0 0.920032 0.92003 0 2.05494 0H5.42505C6.55997 0 7.48 0.92003 7.48 2.05494V8.94505C7.48 10.08 6.55997 11 5.42505 11H2.05494C0.92003 11 0 10.08 0 8.94505V2.05495ZM1.53947 3.00746C1.53947 2.44001 1.99948 1.97999 2.56694 1.97999H4.91199C5.47945 1.97999 5.93946 2.44001 5.93946 3.00746V7.11252C5.93946 7.67998 5.47945 8.13999 4.91199 8.13999H2.56694C1.99948 8.13999 1.53947 7.67997 1.53947 7.11252V3.00746ZM3.85026 10.12C4.15401 10.12 4.40026 9.87375 4.40026 9.57C4.40026 9.26624 4.15401 9.02 3.85026 9.02C3.5465 9.02 3.30026 9.26624 3.30026 9.57C3.30026 9.87375 3.5465 10.12 3.85026 10.12Z" fill="#E7EAEF"/>
</svg>
