<svg width="50" height="8" viewBox="0 0 50 8" fill="none" xmlns="http://www.w3.org/2000/svg">
<path d="M7.87411 2.9055C7.82213 2.74302 7.68034 2.62799 7.51326 2.61262L5.23427 2.40233L4.3336 0.259089C4.26711 0.101627 4.1158 0 3.94739 0C3.77898 0 3.62761 0.101627 3.56153 0.259089L2.66087 2.40233L0.381522 2.61262C0.214435 2.62829 0.0729472 2.74333 0.0206648 2.9055C-0.0313165 3.06799 0.0166894 3.2462 0.143059 3.35885L1.86579 4.89422L1.35784 7.1681C1.32068 7.3353 1.38453 7.50819 1.52101 7.60847C1.59438 7.66265 1.68057 7.68971 1.76707 7.68971C1.84139 7.68971 1.91578 7.66963 1.98222 7.62922L3.94739 6.43492L5.9122 7.62922C6.05633 7.71677 6.23758 7.70875 6.37376 7.60847C6.51025 7.50819 6.5741 7.3353 6.53693 7.1681L6.02899 4.89422L7.75172 3.35885C7.87803 3.2462 7.92609 3.06835 7.87411 2.9055Z" fill="#FFBC00"/>
<path d="M28.9271 2.9055C28.8751 2.74302 28.7333 2.62799 28.5662 2.61262L26.2873 2.40233L25.3866 0.259089C25.3201 0.101627 25.1688 0 25.0004 0C24.832 0 24.6806 0.101627 24.6145 0.259089L23.7138 2.40233L21.4345 2.61262C21.2674 2.62829 21.1259 2.74333 21.0736 2.9055C21.0217 3.06799 21.0697 3.2462 21.196 3.35885L22.9188 4.89422L22.4108 7.1681C22.3737 7.3353 22.4375 7.50819 22.574 7.60847C22.6474 7.66265 22.7336 7.68971 22.82 7.68971C22.8944 7.68971 22.9688 7.66963 23.0352 7.62922L25.0004 6.43492L26.9652 7.62922C27.1093 7.71677 27.2906 7.70875 27.4267 7.60847C27.5632 7.50819 27.6271 7.3353 27.5899 7.1681L27.082 4.89422L28.8047 3.35885C28.931 3.2462 28.9791 3.06835 28.9271 2.9055Z" fill="#FFBC00"/>
<path d="M49.9793 2.9055C49.9274 2.74302 49.7856 2.62799 49.6185 2.61262L47.3395 2.40233L46.4388 0.259089C46.3723 0.101627 46.221 0 46.0526 0C45.8842 0 45.7328 0.101627 45.6668 0.259089L44.7661 2.40233L42.4867 2.61262C42.3197 2.62829 42.1782 2.74333 42.1259 2.9055C42.0739 3.06799 42.1219 3.2462 42.2483 3.35885L43.971 4.89422L43.4631 7.1681C43.4259 7.3353 43.4898 7.50819 43.6262 7.60847C43.6996 7.66265 43.7858 7.68971 43.8723 7.68971C43.9466 7.68971 44.021 7.66963 44.0874 7.62922L46.0526 6.43492L48.0174 7.62922C48.1616 7.71677 48.3428 7.70875 48.479 7.60847C48.6155 7.50819 48.6793 7.3353 48.6422 7.1681L48.1342 4.89422L49.8569 3.35885C49.9833 3.2462 50.0313 3.06835 49.9793 2.9055Z" fill="#C4C4C4"/>
<path d="M18.4005 2.9055C18.3485 2.74302 18.2067 2.62799 18.0396 2.61262L15.7606 2.40233L14.86 0.259089C14.7935 0.101627 14.6422 0 14.4738 0C14.3053 0 14.154 0.101627 14.0879 0.259089L13.1872 2.40233L10.9079 2.61262C10.7408 2.62829 10.5993 2.74333 10.547 2.9055C10.4951 3.06799 10.5431 3.2462 10.6694 3.35885L12.3922 4.89422L11.8842 7.1681C11.847 7.3353 11.9109 7.50819 12.0474 7.60847C12.1207 7.66265 12.2069 7.68971 12.2934 7.68971C12.3678 7.68971 12.4421 7.66963 12.5086 7.62922L14.4738 6.43492L16.4386 7.62922C16.5827 7.71677 16.7639 7.70875 16.9001 7.60847C17.0366 7.50819 17.1005 7.3353 17.0633 7.1681L16.5554 4.89422L18.2781 3.35885C18.4044 3.2462 18.4525 3.06835 18.4005 2.9055Z" fill="#FFBC00"/>
<path d="M39.4535 2.9055C39.4015 2.74302 39.2597 2.62799 39.0926 2.61262L36.8136 2.40233L35.9129 0.259089C35.8465 0.101627 35.6951 0 35.5267 0C35.3583 0 35.207 0.101627 35.1409 0.259089L34.2402 2.40233L31.9609 2.61262C31.7938 2.62829 31.6523 2.74333 31.6 2.9055C31.548 3.06799 31.596 3.2462 31.7224 3.35885L33.4451 4.89422L32.9372 7.1681C32.9 7.3353 32.9639 7.50819 33.1004 7.60847C33.1737 7.66265 33.2599 7.68971 33.3464 7.68971C33.4207 7.68971 33.4951 7.66963 33.5616 7.62922L35.5267 6.43492L37.4915 7.62922C37.6357 7.71677 37.8169 7.70875 37.9531 7.60847C38.0896 7.50819 38.1534 7.3353 38.1163 7.1681L37.6083 4.89422L39.3311 3.35885C39.4574 3.2462 39.5054 3.06835 39.4535 2.9055Z" fill="#FFBC00"/>
</svg>
