<svg width="251" height="248" viewBox="0 0 251 248" fill="none" xmlns="http://www.w3.org/2000/svg">
<mask id="mask0_39_805" style="mask-type:alpha" maskUnits="userSpaceOnUse" x="0" y="0" width="252" height="254">
<path fill-rule="evenodd" clip-rule="evenodd" d="M121.346 0.341635C161.58 -1.44646 205.456 2.93905 231.158 33.9786C257.276 65.5212 254.936 110.151 245.227 149.952C235.739 188.847 216.055 226.246 180.019 243.615C143.987 260.982 101.422 255.236 66.2247 236.231C33.0218 218.302 12.0867 185.347 3.85472 148.492C-4.32605 111.865 -0.195247 72.6185 23.1158 43.2246C46.4839 13.7587 83.8008 2.01025 121.346 0.341635Z" fill="#23272D"/>
</mask>
<g mask="url(#mask0_39_805)">
<path fill-rule="evenodd" clip-rule="evenodd" d="M106.489 -3.28838C109.41 -4.12287 112.454 -2.43166 113.288 0.489031L128.288 52.989L128.312 53.0696L128.332 53.1509L134.308 76.7694L136.27 74.9586L137.29 74.0166L138.635 73.672L240.135 47.672C243.078 46.9183 246.074 48.6926 246.828 51.6352C246.89 51.8771 246.935 52.1194 246.963 52.3608C247.506 52.5679 248.024 52.8651 248.497 53.2544C250.841 55.1854 251.177 58.6516 249.246 60.9964L172.458 154.239L227.819 187.277C230.427 188.834 231.28 192.21 229.723 194.818C228.166 197.427 224.79 198.28 222.182 196.723L160.182 159.723L158.648 158.808L157.945 157.167L139 112.962V191.438L196.157 231.496C198.644 233.239 199.247 236.669 197.504 239.157C195.761 241.644 192.331 242.247 189.843 240.504L134.168 201.483L87.309 246.468C85.1178 248.571 81.6361 248.5 79.5325 246.309C77.4289 244.118 77.4999 240.636 79.6912 238.532L126.258 193.828L88.8212 150.076C88.1797 149.326 87.7751 148.454 87.6002 147.55L58.3168 148.961L44.8933 216.079C44.2976 219.057 41.4001 220.989 38.4215 220.393C35.4429 219.797 33.5112 216.9 34.1069 213.921L46.9898 149.507L5.76487 151.494C2.73083 151.64 0.152712 149.299 0.00649313 146.265C-0.139726 143.231 2.20132 140.653 5.23536 140.506L85.6624 136.63L122.61 87.6862L122.907 87.2929L123.27 86.9586L123.301 86.9291L24.8915 46.0797C22.0861 44.9152 20.7558 41.6969 21.9204 38.8914C23.0849 36.0859 26.3032 34.7557 29.1087 35.9202L122.426 74.6559L117.689 55.9305L102.712 3.51096C101.877 0.59027 103.568 -2.4539 106.489 -3.28838ZM142.71 83.9834L235.677 60.1692L165.081 145.893L139.728 86.7362L142.71 83.9834ZM95.6386 141.672C96.2082 141.984 96.732 142.402 97.1791 142.924L128 178.944V98.8039L95.6386 141.672Z" fill="#383D45"/>
</g>
</svg>
