<svg width="45" height="69" viewBox="0 0 45 69" fill="none" xmlns="http://www.w3.org/2000/svg">
<circle cx="24.5" cy="20.5" r="20.5" fill="#13CF97"/>
<path d="M26.7615 16.8714C25.9147 15.1428 24.1433 14 22.1564 14C19.3132 14 17.0002 16.2992 17.0002 19.1253C17.0002 19.8934 17.1652 20.6295 17.4907 21.3158L17.0088 23.7252C16.9474 24.0319 17.218 24.303 17.5249 24.2423L19.9646 23.7601C20.2931 23.9158 20.633 24.0343 20.9822 24.1159C20.1995 20.4099 23.0094 16.9311 26.7615 16.8714Z" fill="white"/>
<path d="M31.5094 25.0646C31.5936 24.8871 31.6668 24.7062 31.7294 24.5224H31.7134C32.8104 21.3032 30.5033 17.9198 27.0972 17.7551C27.0972 17.7549 27.0972 17.7547 27.0971 17.7545C24.1664 17.6195 21.7316 19.9653 21.7316 22.8741C21.7316 25.6978 24.0272 27.9952 26.8509 27.9993C27.6168 27.9983 28.3509 27.8335 29.0354 27.5089C31.7074 28.037 31.4991 27.9994 31.5604 27.9994C31.8381 27.9994 32.0456 27.745 31.9913 27.474L31.5094 25.0646Z" fill="white"/>
</svg>
