<svg width="166" height="251" viewBox="0 0 166 251" fill="none" xmlns="http://www.w3.org/2000/svg">
<path fill-rule="evenodd" clip-rule="evenodd" d="M77.7573 106.136L108.404 164.227H165.001L129.28 101.366C140.723 97.6546 149.46 91.5463 155.491 83.0412C161.677 74.536 164.77 64.7938 164.77 53.8144C164.77 43.6082 162.373 34.4845 157.579 26.4433C152.94 18.2474 145.904 11.8299 136.471 7.19071C127.038 2.3969 115.672 0 102.373 0H77.7573V43.1443H97.7335C102.527 43.1443 106.161 44.3814 108.636 46.8556C111.264 49.3299 112.579 52.7319 112.579 57.0618C112.579 61.8556 111.342 65.4123 108.867 67.7319C106.393 69.8969 102.682 70.9793 97.7335 70.9793H77.7573V106.136Z" fill="url(#paint0_linear_121_2175)"/>
<path d="M12 245.204L8.346 247.206L8.346 247.486L12 247.486L12 250.244L2.088 250.244L2.088 245.89C2.088 245.097 2.228 244.425 2.508 243.874C2.77867 243.314 3.15667 242.894 3.642 242.614C4.12733 242.334 4.67333 242.194 5.28 242.194C5.97067 242.194 6.57267 242.385 7.086 242.768C7.59 243.151 7.94467 243.701 8.15 244.42L12 242.166L12 245.204ZM6.498 247.486L6.498 246.128C6.498 245.363 6.15267 244.98 5.462 244.98C5.13533 244.98 4.87867 245.078 4.692 245.274C4.50533 245.461 4.412 245.745 4.412 246.128L4.412 247.486L6.498 247.486ZM2.088 232.46L12 232.46L12 235.218L2.088 235.218L2.088 232.46ZM7.016 215.958C7.97733 215.958 8.836 216.168 9.592 216.588C10.3387 217.008 10.9267 217.606 11.356 218.38C11.7853 219.155 12 220.065 12 221.11L12 225.058L2.088 225.058L2.088 221.11C2.088 220.065 2.298 219.155 2.718 218.38C3.12866 217.596 3.70733 216.999 4.454 216.588C5.20066 216.168 6.05466 215.958 7.016 215.958ZM9.536 221.362C9.536 220.55 9.31667 219.911 8.878 219.444C8.43933 218.978 7.81867 218.744 7.016 218.744C6.22267 218.744 5.60666 218.978 5.168 219.444C4.72 219.911 4.496 220.55 4.496 221.362L4.496 222.3L9.536 222.3L9.536 221.362ZM4.286 206.084L5.924 206.084L5.924 202.878L8.01 202.878L8.01 206.084L9.802 206.084L9.802 202.458L12 202.458L12 208.842L2.088 208.842L2.088 202.458L4.286 202.458L4.286 206.084ZM2.088 179.394L4.286 179.394L4.286 182.068L12 182.068L12 184.812L4.286 184.812L4.286 187.458L2.088 187.458L2.088 179.394ZM10.348 166.351L10.348 169.865L12 170.411L12 173.309L2.13 169.683L2.13 166.505L12 162.893L12 165.805L10.348 166.351ZM8.276 167.037L5.056 168.101L8.276 169.179L8.276 167.037ZM9.914 153.443L9.914 150.349L12 150.349L12 156.201L2.088 156.201L2.088 153.443L9.914 153.443ZM6.93199 138.069L12 134.233L12 137.551L7.61799 140.673L12 140.673L12 143.431L2.088 143.431L2.088 140.673L6.372 140.673L2.08799 137.523L2.08799 134.233L6.93199 138.069Z" fill="#01B1C9"/>
<path d="M79 0H29V251H79V0Z" fill="url(#paint1_linear_121_2175)"/>
<path d="M53 248V17H118.515C144.376 17 164.203 70.6404 119.377 84.4831L103.86 91.4045L138.342 158.022" stroke="white" stroke-opacity="0.5" stroke-width="2" stroke-linecap="round" stroke-linejoin="bevel" stroke-dasharray="8 8"/>
<defs>
<linearGradient id="paint0_linear_121_2175" x1="27.2111" y1="3.24048" x2="145.787" y2="164.227" gradientUnits="userSpaceOnUse">
<stop stop-color="#00AFCD"/>
<stop offset="1" stop-color="#13CF97"/>
</linearGradient>
<linearGradient id="paint1_linear_121_2175" x1="30.3652" y1="4.95267" x2="218.472" y2="169.679" gradientUnits="userSpaceOnUse">
<stop stop-color="#00D4F9"/>
<stop offset="1" stop-color="#00EEA7"/>
</linearGradient>
</defs>
</svg>
