<svg width="43" height="43" viewBox="0 0 43 43" fill="none" xmlns="http://www.w3.org/2000/svg">
    <circle cx="21.5" cy="21.5" r="21.5" fill="url(#paint0_linear_155_624)"/>
    <path d="M28 18.1838C27.5538 18.3846 27.0782 18.5177 26.5825 18.5823C27.0925 18.27 27.4818 17.7792 27.6648 17.1877C27.1892 17.4785 26.6642 17.6838 26.1047 17.7985C25.6532 17.3054 25.0097 17 24.3077 17C22.9457 17 21.8492 18.1338 21.8492 19.5238C21.8492 19.7238 21.8657 19.9162 21.9062 20.0992C19.861 19.9969 18.0512 18.9915 16.8355 17.46C16.6233 17.8377 16.4988 18.27 16.4988 18.7354C16.4988 19.6092 16.9375 20.3838 17.5915 20.8323C17.1962 20.8246 16.8085 20.7069 16.48 20.5215C16.48 20.5292 16.48 20.5392 16.48 20.5492C16.48 21.7754 17.3327 22.7938 18.451 23.0285C18.2507 23.0846 18.0325 23.1115 17.806 23.1115C17.6485 23.1115 17.4895 23.1023 17.3403 23.0685C17.659 24.0677 18.5635 24.8023 19.639 24.8262C18.802 25.4977 17.7393 25.9023 16.5888 25.9023C16.387 25.9023 16.1935 25.8931 16 25.8677C17.0897 26.5885 18.3813 27 19.774 27C24.301 27 26.776 23.1538 26.776 19.82C26.776 19.7085 26.7723 19.6008 26.767 19.4938C27.2552 19.1385 27.6655 18.6946 28 18.1838Z" fill="white"/>
    <defs>
        <linearGradient id="paint0_linear_155_624" x1="9" y1="37.5" x2="39" y2="6" gradientUnits="userSpaceOnUse">
            <stop stop-color="#03A9F4"/>
            <stop offset="1" stop-color="#3DC0FB"/>
        </linearGradient>
    </defs>
</svg>
